<svg width="25" height="30" viewBox="0 0 25 30" fill="none" xmlns="http://www.w3.org/2000/svg">
<path d="M24.9123 21.6964C24.2352 23.2002 23.9089 23.8724 23.038 25.1997C21.8187 27.0544 20.099 29.3703 17.9744 29.385C16.0829 29.4021 15.5947 28.151 13.0261 28.1731C10.46 28.1853 9.92518 29.4095 8.03125 29.3899C5.90425 29.3703 4.27772 27.285 3.05844 25.4327C-0.351627 20.2391 -0.712259 14.1501 1.39511 10.9117C2.88671 8.61547 5.24432 7.26616 7.45963 7.26616C9.71665 7.26616 11.1347 8.50507 12.9992 8.50507C14.8097 8.50507 15.9112 7.26371 18.5215 7.26371C20.4939 7.26371 22.5792 8.33825 24.0708 10.1929C19.1937 12.867 19.9861 19.8319 24.9123 21.6964V21.6964ZM16.5392 5.19068C17.4887 3.9714 18.2099 2.25165 17.9474 0.5C16.3994 0.605491 14.5889 1.59417 13.5315 2.87478C12.5723 4.04254 11.7774 5.77456 12.0865 7.45016C13.7768 7.50413 15.526 6.49583 16.5392 5.19068H16.5392Z" fill="#333333"/>
</svg>
