<svg width="26" height="19" viewBox="0 0 26 19" fill="none" xmlns="http://www.w3.org/2000/svg">
<path d="M12.9815 0.26964C12.4914 0.277335 12.1001 0.682539 12.1071 1.1751V12.4823C12.1026 12.8043 12.2709 13.1037 12.5476 13.266C12.8243 13.4283 13.1665 13.4283 13.4432 13.266C13.7199 13.1037 13.8882 12.8043 13.8837 12.4823V1.1751C13.8871 0.933712 13.7931 0.701209 13.6232 0.530613C13.4532 0.360016 13.2217 0.265867 12.9815 0.26964ZM9.77775 1.24368C9.69754 1.24135 9.6174 1.24995 9.53949 1.26925C6.22626 2.03375 3.32246 3.87208 1.20855 6.39865C0.892674 6.77612 0.941092 7.33945 1.31669 7.65689C1.69228 7.97433 2.25283 7.92567 2.5687 7.54821C4.44013 5.31146 7.00905 3.68496 9.93736 3.00927C10.3773 2.91514 10.6778 2.50546 10.6371 2.05531C10.5964 1.60516 10.2273 1.2566 9.77775 1.24368ZM16.2755 1.24368C16.2458 1.24257 16.2161 1.24296 16.1864 1.24484C15.7425 1.27099 15.3862 1.62301 15.3526 2.06864C15.319 2.51427 15.6185 2.91621 16.0534 3.00927C18.9816 3.68493 21.5506 5.3114 23.4221 7.54821C23.6244 7.79852 23.9453 7.91973 24.2616 7.8653C24.5779 7.81086 24.8404 7.58924 24.9483 7.28554C25.0562 6.98183 24.9927 6.64325 24.7822 6.39982C22.6684 3.8733 19.7646 2.03378 16.4513 1.26925C16.3937 1.25485 16.3348 1.24628 16.2755 1.24368ZM9.76271 6.19641C9.65303 6.19489 9.54401 6.21381 9.44118 6.2522C7.48767 6.94949 5.80026 8.2025 4.5592 9.81942C4.35649 10.0712 4.30538 10.4136 4.42565 10.7141C4.54591 11.0146 4.81869 11.2261 5.13844 11.2667C5.45818 11.3073 5.77474 11.1707 5.96561 10.9097C7.00206 9.55935 8.41125 8.51393 10.0357 7.9341C10.4446 7.79405 10.6939 7.37869 10.6266 6.94986C10.5592 6.52103 10.1947 6.20306 9.76271 6.19641ZM16.2015 6.19641C15.7753 6.21626 15.4234 6.53776 15.3631 6.96221C15.3029 7.38666 15.5514 7.7942 15.9551 7.93294C17.5799 8.51344 18.9888 9.55944 20.0252 10.9097C20.216 11.1707 20.5326 11.3073 20.8523 11.2667C21.1721 11.2261 21.4449 11.0146 21.5651 10.7141C21.6854 10.4136 21.6343 10.0712 21.4316 9.81942C20.1905 8.20241 18.5028 6.94885 16.5496 6.25104C16.4384 6.20965 16.32 6.19107 16.2015 6.19641ZM16.2373 11.5815C15.8599 11.5757 15.5199 11.8102 15.3897 12.1663C15.2596 12.5224 15.3676 12.9224 15.659 13.1635C16.0162 13.4669 16.3231 13.8308 16.5623 14.2375C16.7213 14.5173 17.018 14.6893 17.3386 14.6876C17.6593 14.6858 17.9541 14.5106 18.11 14.229C18.266 13.9475 18.2588 13.6033 18.0913 13.3285C17.7502 12.7485 17.3149 12.2333 16.8064 11.8012C16.6484 11.6628 16.4468 11.585 16.2373 11.5815ZM9.70257 11.599C9.50253 11.6091 9.31178 11.687 9.16128 11.8198C8.66253 12.2476 8.23539 12.7574 7.89944 13.3297C7.73022 13.6048 7.72228 13.9503 7.87868 14.233C8.03508 14.5156 8.33136 14.6912 8.65318 14.6919C8.975 14.6926 9.27202 14.5183 9.42961 14.2363C9.66452 13.8362 9.96513 13.478 10.3156 13.1774C10.61 12.9318 10.7148 12.5242 10.5756 12.166C10.4365 11.8077 10.0847 11.5793 9.70257 11.599ZM12.9954 15.1604C12.0142 15.1604 11.2189 15.9597 11.2189 16.9457C11.2189 17.9317 12.0142 18.7311 12.9954 18.7311C13.9765 18.7311 14.7719 17.9317 14.7719 16.9457C14.7719 15.9597 13.9765 15.1604 12.9954 15.1604Z" fill="white"/>
<path fill-rule="evenodd" clip-rule="evenodd" d="M12.9776 0.0196714C13.2858 0.0148297 13.5825 0.135652 13.8003 0.354161C14.0175 0.572173 14.1375 0.868863 14.1337 1.17676V12.4807C14.1388 12.8914 13.9238 13.2739 13.5697 13.4816C13.2149 13.6898 12.7759 13.6898 12.4211 13.4816C12.067 13.2739 11.852 12.8914 11.8571 12.4807V1.17676C11.8492 0.548303 12.349 0.0295392 12.9776 0.0196714ZM16.1712 0.99531C16.209 0.992926 16.2469 0.992439 16.2848 0.993855L16.2864 0.993915C16.3617 0.99722 16.4365 1.00801 16.5096 1.02614C19.8761 1.80342 22.8256 3.67229 24.9728 6.23794C25.241 6.54943 25.3215 6.98161 25.1838 7.36923C25.0458 7.75764 24.7098 8.04183 24.304 8.11167C23.8989 8.1814 23.4883 8.02646 23.2291 7.70717C21.392 5.512 18.8712 3.91644 15.999 3.25329C15.4421 3.13304 15.0604 2.61852 15.1033 2.04985C15.1462 1.48055 15.6016 1.02915 16.1712 0.99531ZM16.2653 1.49348C16.2443 1.49272 16.2233 1.49301 16.2023 1.49434L16.2011 1.49441C15.8831 1.51315 15.6262 1.76565 15.6019 2.08743C15.5776 2.40931 15.7939 2.69809 16.1057 2.76481L16.1096 2.76564C19.0925 3.45392 21.7085 5.11056 23.6138 7.38778L23.6165 7.39104C23.7621 7.57114 23.9925 7.65793 24.2192 7.61892C24.4459 7.57989 24.6349 7.42084 24.7127 7.20184C24.7905 6.98273 24.7446 6.73858 24.5931 6.56332L24.5905 6.56026C22.5104 4.07416 19.6537 2.26476 16.3951 1.51285L16.3906 1.51182C16.3496 1.50155 16.3076 1.49538 16.2653 1.49348ZM9.78493 0.993784C9.68277 0.990824 9.5807 1.00169 9.48144 1.02608ZM9.48144 1.02608C6.11436 1.80344 3.1642 3.67166 1.01682 6.23821C0.612776 6.72104 0.674479 7.44144 1.15532 7.84783C1.63688 8.25483 2.35577 8.19221 2.76043 7.70865C4.59766 5.51278 7.11889 3.91661 9.99177 3.25329C10.5551 3.13166 10.938 2.60723 10.8861 2.0328C10.8341 1.45756 10.362 1.0104 9.78493 0.993784M9.7705 1.49358C9.71297 1.49191 9.65549 1.49807 9.5996 1.51192L9.59571 1.51288C6.33711 2.26478 3.48035 4.07296 1.40029 6.55908C1.17259 6.83117 1.20771 7.23745 1.47807 7.46595C1.74769 7.69382 2.14989 7.65913 2.37698 7.38776C4.28222 5.11061 6.89818 3.45397 9.88115 2.76567L9.88505 2.76478C10.2004 2.6973 10.4175 2.40297 10.3881 2.07782C10.3587 1.75279 10.0926 1.50283 9.7705 1.49358ZM16.6352 6.01616C18.6333 6.73036 20.3591 8.01233 21.6282 9.66504C21.8861 9.98708 21.9506 10.4237 21.7972 10.807C21.6434 11.1913 21.2941 11.4626 20.8838 11.5147C20.4745 11.5667 20.0698 11.3923 19.8252 11.0598C18.8178 9.74806 17.4492 8.73252 15.8723 8.16884C15.3555 7.99038 15.0388 7.46891 15.1156 6.92709C15.1926 6.38459 15.6428 5.97215 16.1898 5.94668C16.3413 5.93986 16.493 5.96348 16.6352 6.01616ZM16.2128 6.44615C15.9076 6.4605 15.6541 6.69101 15.6107 6.99732C15.5672 7.30388 15.7468 7.59698 16.0364 7.69652L16.0392 7.6975C17.7105 8.2946 19.1586 9.3701 20.2235 10.7575L20.227 10.7621C20.3644 10.9499 20.5917 11.0478 20.8208 11.0187C21.05 10.9895 21.2463 10.8378 21.333 10.6212C21.4198 10.4044 21.3828 10.1575 21.2369 9.97619L21.2332 9.97168C20.0206 8.39184 18.3722 7.1677 16.4655 6.48646L16.4624 6.48537C16.3826 6.45568 16.2978 6.44234 16.2128 6.44615ZM9.35554 6.01732C9.48688 5.96854 9.62609 5.9445 9.76616 5.94643C10.3206 5.95498 10.7875 6.36295 10.8736 6.91107C10.9595 7.45843 10.6418 7.98988 10.1183 8.17006C8.54182 8.73309 7.17305 9.74802 6.16558 11.0598C5.92102 11.3923 5.51626 11.5667 5.10694 11.5147C4.69665 11.4626 4.34738 11.1913 4.19355 10.807C4.04015 10.4237 4.1047 9.98708 4.36254 9.66504C5.63165 8.01242 7.35713 6.731 9.35554 6.01732ZM9.7592 6.44638C9.68056 6.44531 9.60239 6.45887 9.52862 6.48641L9.52523 6.48767C7.61817 7.16839 5.97003 8.39191 4.75752 9.97164L4.75399 9.97623C4.60801 10.1576 4.57099 10.4044 4.65775 10.6212C4.74446 10.8378 4.94074 10.9895 5.16994 11.0187C5.39909 11.0478 5.62644 10.9499 5.76383 10.7621L5.76725 10.7574C6.83222 9.36993 8.28074 8.29507 9.95163 7.69865L9.95466 7.69757C10.248 7.5971 10.4283 7.29838 10.3796 6.98866C10.331 6.67922 10.0685 6.45131 9.7592 6.44638ZM15.1549 12.0805C15.3214 11.625 15.7567 11.324 16.2412 11.3316C16.5094 11.336 16.7675 11.4354 16.9696 11.6119C17.4982 12.0612 17.9509 12.597 18.3059 13.2002C18.5191 13.5515 18.5278 13.9906 18.3287 14.3501C18.1292 14.7104 17.7515 14.9353 17.34 14.9376C16.9292 14.9398 16.5497 14.7198 16.346 14.3628C16.1214 13.9813 15.8334 13.6399 15.4983 13.355C15.126 13.046 14.9887 12.5352 15.1549 12.0805ZM16.2334 11.8315C15.963 11.8273 15.7184 11.9954 15.6245 12.2522C15.5306 12.5092 15.6087 12.7974 15.8184 12.9708L15.8209 12.9729C16.1993 13.2944 16.5243 13.6798 16.7778 14.1107L16.7797 14.114C16.8942 14.3155 17.1075 14.4388 17.3373 14.4376C17.5671 14.4363 17.779 14.3107 17.8913 14.1079C18.0037 13.9049 17.9986 13.6567 17.8779 13.4586L17.8758 13.4553C17.549 12.8996 17.132 12.4059 16.6445 11.9917L16.6416 11.9893C16.5281 11.8899 16.3836 11.8341 16.2334 11.8315ZM9.6897 11.3493C10.1802 11.324 10.6307 11.6173 10.8087 12.0755C10.9863 12.5329 10.8531 13.0535 10.4771 13.3682C10.1486 13.6502 9.86678 13.986 9.64645 14.3608C9.44443 14.7201 9.0647 14.9428 8.65265 14.9419C8.23965 14.941 7.86006 14.7157 7.65993 14.354C7.46032 13.9933 7.46998 13.5526 7.68508 13.201C8.03458 12.6062 8.47872 12.0762 8.99726 11.6311C9.1898 11.4617 9.43373 11.3624 9.6897 11.3493ZM10.3426 12.2565C10.2423 11.9982 9.98925 11.8345 9.71544 11.8486C9.57201 11.8559 9.43492 11.9117 9.32673 12.0072L9.32407 12.0096C8.84626 12.4194 8.43697 12.9079 8.11504 13.4562L8.11243 13.4607C7.99047 13.659 7.98468 13.9082 8.09743 14.112C8.2101 14.3156 8.42308 14.4414 8.65372 14.4419C8.88435 14.4424 9.09786 14.3175 9.21139 14.1143L9.21397 14.1097C9.46301 13.6855 9.78159 13.3061 10.1528 12.9877L10.1554 12.9854C10.3671 12.8087 10.443 12.515 10.3426 12.2565ZM10.9689 16.9457C10.9689 15.8228 11.875 14.9104 12.9954 14.9104C14.1158 14.9104 15.0219 15.8228 15.0219 16.9457C15.0219 18.0686 14.1158 18.9811 12.9954 18.9811C11.875 18.9811 10.9689 18.0686 10.9689 16.9457ZM12.9954 15.4104C12.1535 15.4104 11.4689 16.0966 11.4689 16.9457C11.4689 17.7948 12.1535 18.4811 12.9954 18.4811C13.8373 18.4811 14.5219 17.7948 14.5219 16.9457C14.5219 16.0966 13.8373 15.4104 12.9954 15.4104Z" fill="white"/>
</svg>
