<svg width="19" height="20" viewBox="0 0 19 20" fill="none" xmlns="http://www.w3.org/2000/svg">
<g clip-path="url(#clip0)">
<path d="M16.5548 1.76085C16.2346 1.71502 15.9039 1.84769 15.7064 2.12585L12.5412 6.58058L11.6519 6.0831C11.0328 5.73676 10.2551 5.86913 9.78461 6.40019L8.93905 7.35568L16.0376 11.3679L16.4237 10.1207C16.6351 9.43954 16.3404 8.70405 15.7177 8.35627L15.0624 7.98985L17.2425 2.99538C17.4243 2.57832 17.2624 2.09163 16.8662 1.86795C16.7674 1.81185 16.6615 1.77613 16.5548 1.76085ZM7.9455 8.62544C4.37744 12.2592 0 12.4009 0 12.4009L3.53869 14.5416C3.53869 14.5416 5.20394 14.7159 6.00775 14.5529C5.25084 15.0659 4.77745 15.3251 4.77745 15.3251L6.6997 16.5019C6.6997 16.5019 8.75922 16.406 11.3207 14.8742C10.8178 15.9753 9.05883 17.8027 9.05883 17.8027L11.7971 19.0696C11.7971 19.0696 14.0527 17.4348 15.5824 12.928L7.9455 8.62544Z" fill="white"/>
</g>
<defs>
<clipPath id="clip0">
<rect width="19" height="19" fill="white" transform="translate(0 0.910156)"/>
</clipPath>
</defs>
</svg>
