<svg fill="none" height="15" viewBox="0 0 15 15" width="15" xmlns="http://www.w3.org/2000/svg" xmlns:xlink="http://www.w3.org/1999/xlink"><mask id="a" height="9" maskUnits="userSpaceOnUse" width="9" x="3" y="3"><path clip-rule="evenodd" d="m7.5 6.61612 3.3081-3.30806c.244-.24408.6398-.24408.8838 0 .2441.24408.2441.6398 0 .88388l-3.30802 3.30806 3.30802 3.3081c.2441.244.2441.6398 0 .8838-.244.2441-.6398.2441-.8838 0l-3.3081-3.30802-3.30806 3.30802c-.24408.2441-.6398.2441-.88388 0-.24408-.244-.24408-.6398 0-.8838l3.30806-3.3081-3.30806-3.30806c-.24408-.24408-.24408-.6398 0-.88388s.6398-.24408.88388 0z" fill="#fff" fill-rule="evenodd"/></mask><path clip-rule="evenodd" d="m7.5 6.61612 3.3081-3.30806c.244-.24408.6398-.24408.8838 0 .2441.24408.2441.6398 0 .88388l-3.30802 3.30806 3.30802 3.3081c.2441.244.2441.6398 0 .8838-.244.2441-.6398.2441-.8838 0l-3.3081-3.30802-3.30806 3.30802c-.24408.2441-.6398.2441-.88388 0-.24408-.244-.24408-.6398 0-.8838l3.30806-3.3081-3.30806-3.30806c-.24408-.24408-.24408-.6398 0-.88388s.6398-.24408.88388 0z" fill="#4f5463" fill-rule="evenodd"/><g mask="url(#a)"><path d="m0 0h15v15h-15z" fill="#4f5463"/></g></svg>