<svg width="27" height="27" viewBox="0 0 27 27" fill="none" xmlns="http://www.w3.org/2000/svg">
<path d="M25.5098 27C26.3325 27 27 26.3325 27 25.5098V1.49025C27 0.66675 26.3325 0 25.5098 0H1.49025C0.66675 0 0 0.6675 0 1.49025V25.5098C0 26.3325 0.6675 27 1.49025 27H25.5098Z" fill="#3C5A99"/>
<path d="M18.7762 27V16.737H22.5353L23.0978 12.7365H18.7762V10.1835C18.7762 9.0255 19.1265 8.23575 20.9385 8.23575H23.25V4.6575C22.8503 4.608 21.4785 4.5 19.8825 4.5C16.5503 4.5 14.2687 6.36375 14.2687 9.7875V12.7365H10.5V16.737H14.2687V27H18.7762Z" fill="white"/>
</svg>
