<svg width="27" height="27" viewBox="0 0 27 27" fill="none" xmlns="http://www.w3.org/2000/svg">
<path fill-rule="evenodd" clip-rule="evenodd" d="M13.2003 5.39992C15.0322 5.39992 16.8061 6.04657 18.2088 7.22782L22.1319 3.49102C20.6255 2.10204 18.8162 1.08328 16.8474 0.515582C14.8786 -0.0521149 12.8046 -0.153119 10.79 0.220585C8.77536 0.594289 6.87557 1.43241 5.24138 2.66845C3.60719 3.90448 2.28359 5.50439 1.37561 7.34122L5.79956 10.7513C6.31552 9.19553 7.3079 7.84152 8.63614 6.88107C9.96439 5.92063 11.5612 5.40245 13.2003 5.39992Z" fill="#D94F3D"/>
<path fill-rule="evenodd" clip-rule="evenodd" d="M5.4 13.2003C5.4 12.3674 5.535 11.5398 5.7996 10.7514L1.37565 7.34131C0.470578 9.16181 -0.000427246 11.1672 -0.000427246 13.2003C-0.000427246 15.2334 0.470578 17.2388 1.37565 19.0593L5.7996 15.6492C5.536 14.8596 5.40107 14.0328 5.4 13.2003Z" fill="#F2C042"/>
<path fill-rule="evenodd" clip-rule="evenodd" d="M25.8605 10.8H13.2596V16.2H20.4011C19.9763 17.7271 19.0028 19.0438 17.6674 19.8977L22.0562 23.2808C24.8615 20.763 26.5099 16.6698 25.8605 10.8Z" fill="#5085ED"/>
<path fill-rule="evenodd" clip-rule="evenodd" d="M17.6647 19.8976C16.3084 20.674 14.7621 21.056 13.2003 21.0005C11.5612 20.998 9.96439 20.4798 8.63614 19.5194C7.3079 18.5589 6.31552 17.2049 5.79956 15.6491L1.37561 19.0579C2.46818 21.2608 4.15378 23.1152 6.24277 24.4123C8.33177 25.7095 10.7413 26.3981 13.2003 26.4005C16.4358 26.488 19.5894 25.3764 22.0549 23.2793L17.6647 19.8976Z" fill="#57A75C"/>
</svg>
