<svg width="85" height="58" viewBox="0 0 85 58" fill="none" xmlns="http://www.w3.org/2000/svg">
<g filter="url(#filter0_d_4602_8)">
<path d="M13.4697 25.0035C13.1669 25.0269 12.8733 25.1685 12.6595 25.4179L10.2845 28.1887C10.2279 28.255 10.1975 28.3311 10.1577 28.4052C10.1351 28.4466 10.1042 28.4816 10.0866 28.5258C9.97632 28.8057 9.97637 29.1153 10.0866 29.3948C10.1059 29.4435 10.1386 29.4824 10.1639 29.5278C10.2025 29.5976 10.2308 29.6723 10.2845 29.7349L12.6595 32.5058C12.8954 32.7797 13.2284 32.9202 13.5625 32.9202C13.8364 32.9202 14.1108 32.8257 14.3356 32.6357C14.8328 32.2082 14.893 31.4567 14.4655 30.9596L13.7697 30.1493H21.4792C22.1347 30.1493 22.6667 29.6173 22.6667 28.9618C22.6667 28.3063 22.1347 27.7743 21.4792 27.7743H13.7697L14.4624 26.9641C14.8899 26.4654 14.8328 25.7155 14.3356 25.288C14.0855 25.0735 13.7725 24.9801 13.4697 25.0035ZM71.5272 25.0066C71.2242 24.9832 70.9138 25.0743 70.6644 25.288C70.1672 25.7155 70.107 26.4669 70.5345 26.9641L71.2303 27.7743H63.5208C62.8653 27.7743 62.3333 28.3063 62.3333 28.9618C62.3333 29.6173 62.8653 30.1493 63.5208 30.1493H71.2303L70.5376 30.9596C70.1101 31.4583 70.1672 32.2051 70.6644 32.6326C70.8892 32.8257 71.1636 32.9202 71.4375 32.9202C71.7716 32.9202 72.1031 32.7797 72.3374 32.5058L74.7124 29.7349C74.762 29.677 74.7871 29.6073 74.8237 29.5432C74.8531 29.4927 74.8917 29.4497 74.9134 29.3948C75.0236 29.1149 75.0236 28.8052 74.9134 28.5258C74.8939 28.4767 74.8587 28.4384 74.833 28.3928C74.7946 28.3236 74.7657 28.2509 74.7124 28.1887L72.3374 25.4179C72.1237 25.1693 71.8302 25.0299 71.5272 25.0066Z" fill="white"/>
<path fill-rule="evenodd" clip-rule="evenodd" d="M39.6907 10H47.6118C53.0711 10 57.5131 14.4421 57.5131 19.9013V33.7632C57.5131 41.4067 51.2948 47.625 43.6513 47.625C36.0077 47.625 29.7894 41.4067 29.7894 33.7632V19.9013C29.7894 14.4421 34.2315 10 39.6907 10ZM43.6513 44.8125C49.7171 44.8125 54.6513 39.7463 54.6513 33.5184L54.6513 20.3419C54.6513 16.1903 51.3615 12.8125 47.318 12.8125H39.9846C35.9411 12.8125 32.6513 16.1903 32.6513 20.3419V33.5184C32.6513 39.7463 37.5855 44.8125 43.6513 44.8125Z" fill="white"/>
<path fill-rule="evenodd" clip-rule="evenodd" d="M41.671 17.9197C41.671 16.8281 42.5596 15.9395 43.6513 15.9395C44.7429 15.9395 45.6315 16.8281 45.6315 17.9197V21.8802C45.6315 22.9719 44.7429 23.8605 43.6513 23.8605C42.5596 23.8605 41.671 22.9719 41.671 21.8802V17.9197Z" fill="white"/>
</g>
<defs>
<filter id="filter0_d_4602_8" x="0.00390625" y="0" width="84.9922" height="57.625" filterUnits="userSpaceOnUse" color-interpolation-filters="sRGB">
<feFlood flood-opacity="0" result="BackgroundImageFix"/>
<feColorMatrix in="SourceAlpha" type="matrix" values="0 0 0 0 0 0 0 0 0 0 0 0 0 0 0 0 0 0 127 0" result="hardAlpha"/>
<feOffset/>
<feGaussianBlur stdDeviation="5"/>
<feComposite in2="hardAlpha" operator="out"/>
<feColorMatrix type="matrix" values="0 0 0 0 0 0 0 0 0 0 0 0 0 0 0 0 0 0 0.15 0"/>
<feBlend mode="normal" in2="BackgroundImageFix" result="effect1_dropShadow_4602_8"/>
<feBlend mode="normal" in="SourceGraphic" in2="effect1_dropShadow_4602_8" result="shape"/>
</filter>
</defs>
</svg>
