<svg width="46" height="46" viewBox="0 0 46 46" fill="none" xmlns="http://www.w3.org/2000/svg">
<g clip-path="url(#clip0_4602_3)">
<path d="M4.20018 0.000332551C3.83362 0.0286038 3.47813 0.200085 3.21938 0.50196L0.344382 3.85613C0.275848 3.93632 0.239096 4.0285 0.1909 4.11817C0.16356 4.16831 0.126118 4.21065 0.1048 4.26417C-0.0286964 4.60299 -0.0286376 4.9778 0.1048 5.31609C0.128113 5.37505 0.167801 5.42221 0.198386 5.47706C0.245129 5.56165 0.2793 5.65199 0.344382 5.72787L3.21938 9.08204C3.50496 9.41362 3.90806 9.58367 4.31248 9.58367C4.64406 9.58367 4.97619 9.46927 5.24835 9.23927C5.85019 8.72177 5.92308 7.81213 5.40558 7.2103L4.5633 6.2295H13.8958C14.6893 6.2295 15.3333 5.5855 15.3333 4.792C15.3333 3.9985 14.6893 3.3545 13.8958 3.3545H4.5633L5.40184 2.37371C5.91934 1.76996 5.85019 0.862234 5.24836 0.344734C4.94552 0.0850261 4.56674 -0.0279387 4.20018 0.000332551H4.20018ZM41.796 0.00407674C41.4292 -0.0241945 41.0535 0.0859835 40.7516 0.344734C40.1498 0.862234 40.0769 1.77187 40.5944 2.37371L41.4367 3.3545H32.1042C31.3107 3.3545 30.6667 3.9985 30.6667 4.792C30.6667 5.5855 31.3107 6.2295 32.1042 6.2295H41.4367L40.5981 7.2103C40.0806 7.81405 40.1498 8.71802 40.7516 9.23552C41.0238 9.46936 41.3559 9.58367 41.6875 9.58367C42.0919 9.58367 42.4932 9.41362 42.7768 9.08204L45.6518 5.72787C45.7118 5.6577 45.7422 5.57336 45.7866 5.49578C45.8221 5.43457 45.8689 5.38258 45.8952 5.31609C46.0285 4.97733 46.0286 4.60236 45.8952 4.26417C45.8715 4.20477 45.8289 4.1584 45.7978 4.1032C45.7513 4.0194 45.7164 3.93136 45.6518 3.85613L42.7768 0.50196C42.5181 0.201042 42.1628 0.0323453 41.796 0.00407674ZM22.5208 1.917C20.1422 1.917 18.2083 3.85092 18.2083 6.2295V22.2217C16.7598 21.0321 14.9941 20.1253 12.9375 20.1253C7.92156 20.1253 7.66665 22.9198 7.66665 23.4795C7.66665 25.0703 8.50495 25.8502 9.31378 26.6016C10.3354 27.5522 11.8794 28.986 13.499 33.5457C16.4603 41.8833 20.6617 45.9563 26.3542 46.0003H30.2062C38.0088 46.0003 43.4055 41.7584 44.0234 35.2827C44.0459 35.1817 44.0833 35.0873 44.0833 34.9795V34.0212V23.4795C44.0833 21.1009 42.1494 19.167 39.7708 19.167C39.2572 19.167 38.7718 19.2749 38.3146 19.4403C38.2047 17.1589 36.329 15.3337 34.0208 15.3337C33.3307 15.3337 32.6868 15.5123 32.1079 15.8016C31.3974 14.3935 29.9533 13.417 28.2708 13.417C27.7642 13.417 27.2852 13.5217 26.8333 13.6828V6.2295C26.8333 3.85092 24.8994 1.917 22.5208 1.917L22.5208 1.917ZM22.5208 4.792C23.3143 4.792 23.9583 5.436 23.9583 6.2295V17.7295V22.5212C23.9583 23.3147 24.6023 23.9587 25.3958 23.9587C26.1893 23.9587 26.8333 23.3147 26.8333 22.5212V17.7295C26.8333 16.936 27.4773 16.292 28.2708 16.292C29.0643 16.292 29.7083 16.936 29.7083 17.7295V19.6462V24.4378C29.7083 25.2313 30.3523 25.8753 31.1458 25.8753C31.9393 25.8753 32.5833 25.2313 32.5833 24.4378V19.6462C32.5833 18.8527 33.2273 18.2087 34.0208 18.2087C34.8143 18.2087 35.4583 18.8527 35.4583 19.6462V23.4795V26.3545C35.4583 27.148 36.1023 27.792 36.8958 27.792C37.6893 27.792 38.3333 27.148 38.3333 26.3545V23.4795C38.3333 23.2811 38.3728 23.0937 38.4456 22.9217C38.6639 22.4058 39.1757 22.042 39.7708 22.042C40.5643 22.042 41.2083 22.686 41.2083 23.4795V34.0586C41.2083 40.7497 35.282 43.1253 30.1875 43.1253H26.3654C23.6054 43.1043 19.55 41.985 16.2093 32.5799C14.352 27.3551 12.4255 25.5654 11.2716 24.494C10.5433 23.8174 10.542 23.7728 10.5267 23.5581C10.5305 23.5524 10.9365 23.0003 12.9375 23.0003C15.387 23.0003 17.4693 25.3133 18.4928 26.6914C18.5137 26.7196 18.5452 26.7326 18.5677 26.7588C18.6342 26.8367 18.7108 26.8988 18.7923 26.9609C18.8603 27.0125 18.9234 27.0651 18.9982 27.1032C19.0869 27.149 19.1808 27.1739 19.279 27.2005C19.3642 27.2235 19.4456 27.2459 19.5335 27.2529C19.5726 27.2561 19.6059 27.2754 19.6458 27.2754C19.7057 27.2754 19.7563 27.2488 19.8143 27.2417C19.9079 27.2308 19.9965 27.2153 20.0876 27.1856C20.1831 27.154 20.2678 27.1119 20.3533 27.062C20.4021 27.034 20.4568 27.0253 20.5031 26.9909C20.5342 26.9678 20.5492 26.9336 20.578 26.9085C20.6471 26.8483 20.7011 26.7787 20.7576 26.7064C20.8172 26.6303 20.8763 26.5591 20.9186 26.4743C20.9582 26.3958 20.9799 26.3131 21.0047 26.2272C21.0327 26.13 21.0576 26.0361 21.0646 25.9352C21.067 25.9013 21.0833 25.8725 21.0833 25.8379V6.22951C21.0833 5.43601 21.7273 4.79201 22.5208 4.79201L22.5208 4.792Z" fill="white"/>
</g>
<defs>
<clipPath id="clip0_4602_3">
<rect width="46" height="46" fill="white"/>
</clipPath>
</defs>
</svg>
