<svg width="19" height="15" viewBox="0 0 19 15" fill="none" xmlns="http://www.w3.org/2000/svg">
<path d="M9.5 0.638672C4.17287 0.638672 0 3.33588 0 6.77963C0 9.87267 3.37092 12.3561 7.91667 12.8311V14.1619C7.91667 14.7264 8.59908 15.009 8.99808 14.61L11.4277 12.1804C11.6747 11.9334 11.6747 11.532 11.4277 11.285L8.99808 8.85538C8.59908 8.45638 7.91667 8.73901 7.91667 9.30267V10.445C4.58454 10.0247 2.375 8.32575 2.375 6.77884C2.375 4.99759 5.301 3.01288 9.5 3.01288C13.699 3.01288 16.625 4.99759 16.625 6.77884C16.625 7.94655 15.5127 8.80471 14.8493 9.21242C14.2904 9.55601 14.1162 10.2875 14.4598 10.8456C14.8042 11.4053 15.5349 11.5787 16.093 11.2351C17.9677 10.0833 19 8.50071 19 6.77963C19 3.33588 14.8271 0.638672 9.5 0.638672Z" fill="white"/>
</svg>
