<svg width="19" height="15" viewBox="0 0 19 15" fill="none" xmlns="http://www.w3.org/2000/svg">
<path d="M9.5 0.00976562C4.17287 0.00976562 0 2.70697 0 6.15072C0 9.24377 3.37092 11.7272 7.91667 12.2022V13.533C7.91667 14.0975 8.59908 14.3801 8.99808 13.9811L11.4277 11.5515C11.6747 11.3045 11.6747 10.9031 11.4277 10.6561L8.99808 8.22647C8.59908 7.82747 7.91667 8.1101 7.91667 8.67377V9.81614C4.58454 9.39577 2.375 7.69685 2.375 6.14993C2.375 4.36868 5.301 2.38397 9.5 2.38397C13.699 2.38397 16.625 4.36868 16.625 6.14993C16.625 7.31764 15.5127 8.17581 14.8493 8.58352C14.2904 8.9271 14.1162 9.6586 14.4598 10.2167C14.8042 10.7764 15.5349 10.9498 16.093 10.6062C17.9677 9.45435 19 7.87181 19 6.15072C19 2.70697 14.8271 0.00976562 9.5 0.00976562Z" fill="black"/>
</svg>
