<svg width="138" height="138" viewBox="0 0 138 138" fill="none" xmlns="http://www.w3.org/2000/svg">
<path d="M100.637 76.4242L61.6295 37.4168C59.6769 35.4641 56.5111 35.4641 54.5585 37.4168L37.535 54.4402C35.5824 56.3928 35.5824 59.5587 37.535 61.5113L76.5424 100.519C78.495 102.471 81.6609 102.471 83.6135 100.519L100.637 83.4952C102.59 81.5426 102.59 78.3768 100.637 76.4242Z" fill="white"/>
<path d="M69.0855 0.167746C89.6011 0.167746 108.067 9.18741 120.685 23.4818V10.4877C120.66 8.62927 121.388 6.83955 122.702 5.52591C124.017 4.21227 125.808 3.48647 127.666 3.51368C131.463 3.56933 134.497 6.69062 134.445 10.4877V44.8877H123.964C123.177 45.0258 122.373 45.0258 121.586 44.8877H100.045C97.5643 44.9228 95.2565 43.6192 94.0056 41.4761C92.7548 39.333 92.7548 36.6824 94.0056 34.5393C95.2565 32.3962 97.5643 31.0926 100.045 31.1277H109.028C99.0097 20.5461 84.8592 13.9277 69.0855 13.9277C39.6425 13.9277 15.8093 36.8884 14.2135 65.904C14.107 68.3791 12.6781 70.6059 10.4724 71.7341C8.26673 72.8622 5.62486 72.7175 3.55559 71.3552C1.48632 69.993 0.309171 67.6234 0.473611 65.1515C2.46228 28.9928 32.453 0.167725 69.0855 0.167725V0.167746ZM130.629 65.4337C132.571 65.3762 134.446 66.142 135.793 67.5421C137.139 68.9422 137.831 70.8462 137.697 72.784C135.709 108.943 105.718 137.768 69.0855 137.768C48.5721 137.768 30.1035 128.748 17.4855 114.454V127.448C17.5206 129.929 16.217 132.237 14.0739 133.488C11.9308 134.738 9.28016 134.738 7.13706 133.488C4.99396 132.237 3.69036 129.929 3.72545 127.448V93.0478H14.3478C15.0469 92.9393 15.7585 92.9393 16.4575 93.0478H38.1255C40.6067 93.0127 42.9145 94.3163 44.1653 96.4594C45.4162 98.6025 45.4162 101.253 44.1653 103.396C42.9145 105.539 40.6067 106.843 38.1255 106.808H29.1492C39.167 117.388 53.3138 124.008 69.0855 124.008C98.5285 124.008 122.362 101.047 123.958 72.0315C124.104 68.4218 127.018 65.5404 130.629 65.4337Z" fill="white"/>
</svg>
