<svg width="18" height="19" viewBox="0 0 18 19" fill="none" xmlns="http://www.w3.org/2000/svg">
<path d="M1.96875 0.984375C1.41647 0.984375 0.96875 1.4321 0.96875 1.98438V4.24219C0.96875 4.79446 1.41647 5.24219 1.96875 5.24219H4.22656C4.77885 5.24219 5.22656 4.79446 5.22656 4.24219V1.98438C5.22656 1.4321 4.77885 0.984375 4.22656 0.984375H1.96875Z" fill="white"/>
<path d="M6.22656 5.24219C5.67428 5.24219 5.22656 5.68991 5.22656 6.24219V8.5C5.22656 9.05228 5.67428 9.5 6.22656 9.5H8.48438C9.03666 9.5 9.48438 9.05228 9.48438 8.5V6.24219C9.48438 5.68991 9.03666 5.24219 8.48438 5.24219H6.22656Z" fill="white"/>
<path d="M13.7422 6.24219C13.7422 5.68991 14.1899 5.24219 14.7422 5.24219H17C17.5523 5.24219 18 5.68991 18 6.24219V8.5C18 9.05228 17.5523 9.5 17 9.5H14.7422C14.1899 9.5 13.7422 9.05228 13.7422 8.5V6.24219Z" fill="white"/>
<path d="M1.96875 9.5C1.41647 9.5 0.96875 9.94772 0.96875 10.5V12.7578C0.96875 13.3101 1.41647 13.7578 1.96875 13.7578H4.22656C4.77885 13.7578 5.22656 13.3101 5.22656 12.7578V10.5C5.22656 9.94772 4.77885 9.5 4.22656 9.5H1.96875Z" fill="white"/>
<path d="M9.48438 10.5C9.48438 9.94772 9.93209 9.5 10.4844 9.5H12.7422C13.2945 9.5 13.7422 9.94772 13.7422 10.5V12.7578C13.7422 13.3101 13.2945 13.7578 12.7422 13.7578H10.4844C9.93209 13.7578 9.48438 13.3101 9.48438 12.7578V10.5Z" fill="white"/>
<path d="M6.22656 13.7578C5.67428 13.7578 5.22656 14.2055 5.22656 14.7578V17.0156C5.22656 17.5679 5.67428 18.0156 6.22656 18.0156H8.48438C9.03666 18.0156 9.48438 17.5679 9.48438 17.0156V14.7578C9.48438 14.2055 9.03666 13.7578 8.48438 13.7578H6.22656Z" fill="white"/>
<path d="M13.7422 14.7578C13.7422 14.2055 14.1899 13.7578 14.7422 13.7578H17C17.5523 13.7578 18 14.2055 18 14.7578V17.0156C18 17.5679 17.5523 18.0156 17 18.0156H14.7422C14.1899 18.0156 13.7422 17.5679 13.7422 17.0156V14.7578Z" fill="white"/>
<path d="M10.4844 0.984375C9.93209 0.984375 9.48438 1.4321 9.48438 1.98438V4.24219C9.48438 4.79446 9.93209 5.24219 10.4844 5.24219H12.7422C13.2945 5.24219 13.7422 4.79446 13.7422 4.24219V1.98438C13.7422 1.4321 13.2945 0.984375 12.7422 0.984375H10.4844Z" fill="white"/>
</svg>
