<svg width="14" height="14" viewBox="0 0 14 14" fill="none" xmlns="http://www.w3.org/2000/svg">
<path fill-rule="evenodd" clip-rule="evenodd" d="M4.08341 2.91759H2.91675H1.75008C1.42792 2.91759 1.16675 3.17875 1.16675 3.50092C1.16675 3.82308 1.42792 4.08425 1.75008 4.08425H2.33341V11.6676C2.33341 12.6341 3.11692 13.4176 4.08341 13.4176H9.91675C10.8832 13.4176 11.6667 12.6341 11.6667 11.6676V4.08425H12.2501C12.5722 4.08425 12.8334 3.82308 12.8334 3.50092C12.8334 3.17875 12.5722 2.91759 12.2501 2.91759H11.0834H9.91675V2.33398C9.91675 1.36749 9.13324 0.583984 8.16675 0.583984H5.83341C4.86691 0.583984 4.08341 1.36749 4.08341 2.33398V2.91759ZM5.25008 2.91759H8.75008V2.33398C8.75008 2.01182 8.48891 1.75065 8.16675 1.75065H5.83341C5.51125 1.75065 5.25008 2.01182 5.25008 2.33398V2.91759ZM3.50008 11.6676V4.08425H10.5001V11.6676C10.5001 11.9898 10.2389 12.2509 9.91675 12.2509H4.08341C3.76125 12.2509 3.50008 11.9898 3.50008 11.6676Z" fill="#B4B7B8"/>
<mask id="mask0" mask-type="alpha" maskUnits="userSpaceOnUse" x="1" y="0" width="12" height="14">
<path fill-rule="evenodd" clip-rule="evenodd" d="M4.08341 2.91759H2.91675H1.75008C1.42792 2.91759 1.16675 3.17875 1.16675 3.50092C1.16675 3.82308 1.42792 4.08425 1.75008 4.08425H2.33341V11.6676C2.33341 12.6341 3.11692 13.4176 4.08341 13.4176H9.91675C10.8832 13.4176 11.6667 12.6341 11.6667 11.6676V4.08425H12.2501C12.5722 4.08425 12.8334 3.82308 12.8334 3.50092C12.8334 3.17875 12.5722 2.91759 12.2501 2.91759H11.0834H9.91675V2.33398C9.91675 1.36749 9.13324 0.583984 8.16675 0.583984H5.83341C4.86691 0.583984 4.08341 1.36749 4.08341 2.33398V2.91759ZM5.25008 2.91759H8.75008V2.33398C8.75008 2.01182 8.48891 1.75065 8.16675 1.75065H5.83341C5.51125 1.75065 5.25008 2.01182 5.25008 2.33398V2.91759ZM3.50008 11.6676V4.08425H10.5001V11.6676C10.5001 11.9898 10.2389 12.2509 9.91675 12.2509H4.08341C3.76125 12.2509 3.50008 11.9898 3.50008 11.6676Z" fill="white"/>
</mask>
<g mask="url(#mask0)">
<rect width="14" height="14" fill="white"/>
</g>
</svg>
