<svg width="6" height="12" viewBox="0 0 6 12" fill="none" xmlns="http://www.w3.org/2000/svg">
<path fill-rule="evenodd" clip-rule="evenodd" d="M1.89377 4.26218C1.89442 4.26202 1.89509 4.26185 1.89577 4.26167C1.95267 4.24735 2.04828 4.23539 2.18138 4.23302C2.44381 4.22835 2.79467 4.26167 3.14865 4.33723C3.61492 4.43676 3.91004 4.52582 4.09675 4.6158C4.27523 4.70182 4.31391 4.76874 4.32931 4.80921C4.39794 4.98967 4.59853 5.07981 4.77733 5.01054C4.95614 4.94127 5.04545 4.73883 4.97682 4.55837C4.87588 4.29297 4.669 4.11588 4.39562 3.98413C4.13046 3.85633 3.76742 3.75383 3.29217 3.65238C2.89417 3.56743 2.49075 3.5274 2.16913 3.53313C2.01021 3.53596 1.85636 3.55015 1.72792 3.58248C1.66416 3.59853 1.59238 3.62252 1.52566 3.66116C1.4621 3.69796 1.36969 3.76762 1.32003 3.88964C1.24727 4.06845 1.3319 4.27294 1.50906 4.34638C1.646 4.40314 1.79814 4.365 1.89377 4.26218Z" fill="#A9AFBB"/>
<path d="M0.869388 3.08955C1.16939 3.39233 1.37343 3.60656 1.70816 3.92992L1.23673 5.17193C0.630612 4.56019 0 3.54681 0 3.08955C0 2.32332 0.0734694 1.87224 0.153061 1.00098H0.844898C0.844898 1.81661 0.869388 2.27391 0.869388 3.08955Z" fill="white"/>
<path d="M1.61633 3.84656L1.696 3.9238L1.2307 5.14728L1.00408 4.91247C1.00408 4.39033 1.2949 3.99177 1.61633 3.84656Z" fill="#A9AFBB"/>
<path d="M5.22977 5.31108C5.14773 4.9435 4.83673 4.57263 4.56735 4.57263L4.21224 6.04328C4.65306 7.05667 4.94694 8.18128 5.32653 9.02165C5.58367 9.02165 5.76735 8.92279 6 8.76213L5.22977 5.31108Z" fill="white"/>
<path d="M4.78929 4.64207C5.01429 5.10397 4.67296 5.9567 4.5551 6.89593L4.32245 6.30579L4.67296 4.57874L4.78929 4.64207Z" fill="#A9AFBB"/>
<path d="M4.76939 5.17191C4.85139 4.9112 4.78776 4.57871 4.50612 4.38715L1.92245 3.84338C1.43265 3.90518 1.22449 4.32536 1.22449 4.83206C1.0898 7.4026 0.673469 9.04627 0.208163 11.5674L1.29796 11.8022L2.14286 8.7991L2.58367 8.86089L2.71837 11.9999H3.94286C3.94286 9.72598 3.89824 7.60624 4.18775 6.68581C4.37903 6.07771 4.57811 5.78002 4.76939 5.17191Z" fill="white"/>
<path d="M2.71837 6.42633L1.78163 3.8774C1.94822 3.78436 2.61215 3.8638 3.24924 3.99727C3.81798 4.11641 4.36532 4.2786 4.51837 4.39955L2.71837 6.42633Z" fill="#A9AFBB"/>
<path d="M5.7551 1.90937C5.7551 2.96389 4.9081 3.81874 3.86327 3.81874C2.81843 3.81874 1.97143 2.96389 1.97143 1.90937C1.97143 0.854855 2.81843 0 3.86327 0C4.9081 0 5.7551 0.854855 5.7551 1.90937Z" fill="white"/>
<path d="M2.10612 8.77759L2.33418 8.82239L1.45714 11.7899H1.28571L2.10612 8.77759Z" fill="#A9AFBB"/>
</svg>
