<svg fill="none" height="169" viewBox="0 0 218 169" width="218" xmlns="http://www.w3.org/2000/svg" xmlns:xlink="http://www.w3.org/1999/xlink"><linearGradient id="a" gradientUnits="userSpaceOnUse" x1="34.8139" x2="190.131" y1="113.663" y2="99.8088"><stop offset="0" stop-color="#d4c2f4"/><stop offset=".5" stop-color="#aadafa"/><stop offset="1" stop-color="#b3edec"/></linearGradient><path d="m179.461 69.7934c0 38.5456-31.264 69.7936-69.83 69.7936-38.5653 0-69.829-31.248-69.829-69.7936 0-38.5458 31.2637-69.7934 69.829-69.7934 38.566 0 69.83 31.2476 69.83 69.7934z" fill="#f6fafb"/><path clip-rule="evenodd" d="m109.631 136.596c36.913 0 66.837-29.909 66.837-66.8026 0-36.8939-29.924-66.80226-66.837-66.80226-36.9125 0-66.8363 29.90836-66.8363 66.80226 0 36.8936 29.9238 66.8026 66.8363 66.8026zm0 2.991c38.566 0 69.83-31.248 69.83-69.7936 0-38.5458-31.264-69.7934-69.83-69.7934-38.5653 0-69.829 31.2476-69.829 69.7934 0 38.5456 31.2637 69.7936 69.829 69.7936z" fill="#e2eaeb" fill-rule="evenodd"/><path d="m156.841 113.664h-97.4603c-.067 0-.1361-.008-.2017-.021-30.4358-6.29-31.3901-42.6192-8.2525-53.8504.2913-.1414.5055-.4162.5683-.7337 3.32-16.7727 17.938-26.6958 37.168-23.1191.35.0651.7162-.0592.956-.3222 16.4542-18.0438 47.7432-11.3628 56.0582 6.0333.189.3953.619.6333 1.056.5913 40.336-3.8827 52.556 55.6766 10.456 71.3578-.11.041-.231.064-.348.064z" fill="#fff"/><path clip-rule="evenodd" d="m146.891 40.7255c20.927-1.8633 34.531 12.7081 37.458 29.6039 2.944 16.9977-4.843 36.5536-26.637 44.6726-.274.102-.572.157-.871.157h-97.4603c-.1702 0-.3407-.018-.5046-.052-15.865-3.278-24.1856-14.47-25.402-26.3845-1.2023-11.7773 4.5528-24.2241 16.5977-30.1769 1.7681-8.6508 6.4496-15.6081 13.2357-19.938 6.7815-4.327 15.5487-5.9576 25.3771-4.1844 8.6241-9.3163 21.0064-12.1929 32.2314-10.559 11.144 1.6221 21.468 7.7432 25.975 16.8613zm-26.406-13.9014c-10.538-1.5339-21.9368 1.2216-29.7602 9.8008-.5855.6421-1.4722.9458-2.3357.7851-9.2994-1.7296-17.3643-.1778-23.4713 3.7188-6.1023 3.8935-10.3678 10.2017-11.955 18.2202-.155.783-.6747 1.4452-1.3825 1.7887-10.9558 5.318-16.2216 16.5788-15.1289 27.2812 1.0841 10.6189 8.443 20.7251 22.9811 23.7491h97.3175c20.241-7.582 27.371-25.618 24.65-41.3283-2.729-15.7525-15.286-28.9608-34.524-27.1089-1.049.1009-2.084-.4612-2.549-1.4353-3.883-8.1231-13.263-13.9314-23.842-15.4714z" fill="url(#a)" fill-rule="evenodd"/><path d="m97.6607 74.7787c0 2.2026-1.7865 3.9882-3.9903 3.9882-2.2037 0-3.9902-1.7856-3.9902-3.9882s1.7865-3.9882 3.9902-3.9882c2.2038 0 3.9903 1.7856 3.9903 3.9882z" fill="#bbd2d5"/><path d="m129.583 74.7787c0 2.2026-1.787 3.9882-3.991 3.9882-2.203 0-3.99-1.7856-3.99-3.9882s1.787-3.9882 3.99-3.9882c2.204 0 3.991 1.7856 3.991 3.9882z" fill="#bbd2d5"/><path d="m85.6035 68.1428c-.3787-.7253-.0975-1.6201.6281-1.9986l5.6338-2.939c.7257-.3786 1.6209-.0975 1.9997.6278.3787.7252.0975 1.62-.6281 1.9986l-5.6338 2.939c-.7257.3785-1.621.0975-1.9997-.6278z" fill="#bbd2d5"/><path d="m133.14 67.8386c.379-.7253.098-1.6201-.628-1.9986l-5.634-2.939c-.725-.3786-1.62-.0975-1.999.6278-.379.7252-.098 1.62.628 1.9986l5.634 2.939c.725.3785 1.621.0975 1.999-.6278z" fill="#bbd2d5"/><path clip-rule="evenodd" d="m111.128 86.2446c-2.275 0-4.207.9997-5.302 2.4118-.506.6528-1.446.7718-2.099.2658s-.772-1.4455-.266-2.0983c1.702-2.1952 4.535-3.5705 7.667-3.5705s5.964 1.3753 7.667 3.5705c.506.6528.387 1.5923-.266 2.0983-.654.506-1.593.387-2.1-.2658-1.095-1.4121-3.026-2.4118-5.301-2.4118z" fill="#bbd2d5" fill-rule="evenodd"/><path d="m170.581 25.7323c.755-2.6478 3.515-4.1825 6.164-3.4277l33.879 9.6518c2.649.7547 4.184 3.513 3.429 6.1608l-6.61 23.1769c-.755 2.6478-3.515 4.1824-6.164 3.4277l-33.879-9.6518c-2.649-.7547-4.184-3.513-3.429-6.1609z" fill="#fdffff"/><g fill="#e2eaeb"><path clip-rule="evenodd" d="m169.142 25.3224c.981-3.4421 4.569-5.4372 8.013-4.456l33.879 9.6518c3.444.9811 5.44 4.5669 4.458 8.0091l-6.61 23.1769c-.981 3.4421-4.569 5.4372-8.013 4.456l-33.879-9.6518c-3.444-.9812-5.44-4.567-4.458-8.0091zm7.193-1.5795c-1.855-.5283-3.787.546-4.315 2.3994l-6.61 23.1769c-.529 1.8535.546 3.7843 2.401 4.3126l33.878 9.6518c1.855.5283 3.787-.5459 4.315-2.3994l6.61-23.1768c.529-1.8535-.546-3.7843-2.401-4.3126z" fill-rule="evenodd"/><path d="m170.323 26.6362 43.472 12.385-.812 2.8491-43.473-12.3849z"/><path d="m173.79 36.0957 18.529 5.2788-.813 2.8492-18.529-5.2788z"/><path d="m172.571 40.3694 18.529 5.2788-.813 2.8492-18.529-5.2788z"/><path d="m171.352 44.6433 8.552 2.4364-.813 2.8492-8.551-2.4364z"/></g><path d="m2.83211 104.447c-.46199-2.715 1.36499-5.2893 4.08067-5.7511l34.72922-5.905c2.7157-.4618 5.2917 1.3643 5.7537 4.0785l4.0439 23.7586c.462 2.714-1.365 5.289-4.0807 5.751l-34.7292 5.905c-2.7157.462-5.29171-1.364-5.7537-4.079z" fill="#fdffff"/><path clip-rule="evenodd" d="m1.35699 104.697c-.600588-3.528 1.77448-6.8753 5.30487-7.4755l34.72924-5.9051c3.5304-.6003 6.8792 1.7736 7.4798 5.3021l4.0439 23.7585c.6005 3.529-1.7745 6.876-5.3049 7.476l-34.7292 5.905c-3.53043.6-6.87924-1.773-7.47982-5.302zm5.80677-4.527c-1.90098.323-3.17986 2.126-2.85647 4.026l4.04389 23.758c.32339 1.9 2.12662 3.179 4.02762 2.855l34.7292-5.905c1.901-.323 3.1798-2.125 2.8565-4.025l-4.0439-23.7588c-.3234-1.9-2.1266-3.1782-4.0276-2.855z" fill="#e2eaeb" fill-rule="evenodd"/><path d="m2.98999 105.373 44.56361-7.5769.4971 2.9209-44.56359 7.577z" fill="#e2eaeb"/><path d="m23.0412 109.438c.225-.236.4684-.46.7303-.672.2687-.213.5602-.404.8746-.573.3213-.169.6695-.311 1.0446-.424.3814-.12.7941-.202 1.2381-.246.6149-.061 1.1802-.031 1.6958.091.515.114.9656.311 1.352.59.3857.272.6958.617.9303 1.036.2414.417.3888.895.4422 1.435.0514.519.0208.977-.0916 1.374-.1063.39-.2584.736-.4561 1.038-.1909.302-.4095.568-.6556.799-.2462.232-.4801.448-.7016.649-.2216.201-.4124.399-.5724.594-.1539.188-.2409.39-.2609.605l-.1113 1.49-1.9368.192-.359-1.64c-.0803-.323-.0673-.611.0388-.862.1055-.259.2578-.498.4568-.718.1983-.226.4216-.445.6698-.656.2544-.218.4872-.444.6985-.679.2175-.242.3917-.504.5225-.786.1369-.289.1871-.618.1506-.987-.0446-.451-.2372-.794-.5779-1.029-.3338-.236-.7569-.329-1.2693-.278-.3757.037-.6893.11-.9409.217-.2446.107-.4541.221-.6285.342-.175.114-.3233.218-.445.313-.1217.094-.2406.148-.3568.159-.2596.026-.4654-.068-.6176-.28zm3.1066 11.836c-.0223-.226-.0023-.442.0601-.648.0685-.213.1708-.399.307-.558.1354-.165.2981-.298.4881-.399.1962-.11.4139-.176.653-.199.2323-.023.4553-.001.669.068.2131.061.4022.16.5674.295.1645.129.2979.292.4001.488.1084.19.1738.397.1961.622.023.232-.0001.452-.0693.659-.0624.206-.1613.391-.2968.556-.1361.159-.3026.289-.4994.391-.1969.102-.4114.165-.6437.188-.2391.024-.4652.005-.6783-.057-.2062-.062-.3916-.158-.5561-.286-.1652-.136-.302-.298-.4104-.487-.1016-.19-.1639-.401-.1868-.633z" fill="#e2eaeb"/><path d="m172.992 102.696c-9.605 1.731-16.271 1.477-25.352 1.477 3.406 11.078 12.487 21.049 23.082 28.434 6.946-4.8 13.929-2.991 20.811-4.8-7.946-8.124-15.514-15.51-18.541-25.111z" fill="#fdffff"/><path clip-rule="evenodd" d="m172.727 101.224c.741-.133 1.466.304 1.692 1.022 2.768 8.779 9.514 15.665 17.118 23.427.354.361.709.723 1.066 1.088.372.381.514.931.372 1.444-.142.514-.546.913-1.061 1.048-2.577.678-5.244.881-7.752 1.073-.979.075-1.934.148-2.85.246-3.359.362-6.558 1.067-9.739 3.266-.514.355-1.195.353-1.707-.004-10.742-7.488-20.115-17.702-23.656-29.222-.14-.453-.055-.946.227-1.328.282-.381.728-.607 1.203-.607 1.058 0 2.08.004 3.076.007 7.598.025 13.66.045 22.011-1.46zm-22.996 4.448c3.586 9.601 11.571 18.364 21.023 25.127 3.47-2.145 6.929-2.844 10.238-3.201 1.116-.12 2.185-.201 3.225-.28 1.483-.113 2.906-.221 4.32-.431-6.863-7.003-13.446-13.889-16.552-22.498-7.992 1.332-14.064 1.311-21.282 1.286-.322-.001-.646-.002-.972-.003z" fill="#e2eaeb" fill-rule="evenodd"/><path d="m5.30769 41.3677c1.93128-9.3625 1.11161-13.2094 1.11161-22.0973 11.0441 3.5629 21.7533 11.5764 28.9468 22.0972 0 6.4185-3.44 13.3996-6.3449 20.8614-6.2989-7.777-14.1435-17.6994-23.71351-20.8613z" fill="#fdffff"/><path clip-rule="evenodd" d="m3.84222 41.0659c-.15335.7434.2748 1.4837.99587 1.722 4.47401 1.4782 8.63461 4.5721 12.50791 8.3503 3.6762 3.5859 6.999 7.6914 10.0356 11.4433.1597.1972.3186.3935.4767.5887.3356.4144.8665.6188 1.3936.5367.527-.0822.9705-.4385 1.1639-.9354.5193-1.3339 1.0676-2.6799 1.6144-4.0225.9448-2.3196 1.8853-4.6286 2.6646-6.8461 1.2429-3.5367 2.1677-7.0746 2.1677-10.5351 0-.3011-.091-.5952-.261-.8438-7.3711-10.7807-18.3471-19.0069-29.72251-22.6767-.45535-.1469-.95352-.0673-1.34034.2142-.38682.2814-.61564.7308-.61564 1.2091 0 2.2709.051 4.1976.09752 5.9546.13881 5.2434.23764 8.9764-1.17831 15.8407zm4.08891-19.686c9.87737 3.6879 19.35677 11.0014 25.93247 20.4446-.0765 2.8262-.8508 5.8387-1.9923 9.0871-.7598 2.162-1.6463 4.3368-2.5677 6.5971-.241.5913-.4844 1.1885-.7286 1.7928-2.7376-3.3703-5.7903-7.0377-9.1387-10.3039-3.6855-3.5951-7.8177-6.7949-12.41114-8.5986 1.22509-6.453 1.12014-10.3878.98615-15.4111-.03023-1.1335-.06194-2.3223-.08018-3.608z" fill="#e2eaeb" fill-rule="evenodd"/><path d="m78.9343 143.018 5.7579-20.381v20.381c0 8.303-7.3573 6.416-5.7579 0z" fill="#fff"/><path clip-rule="evenodd" d="m84.8975 121.156c.74.102 1.2911.734 1.2911 1.481v20.381c0 2.271-.4997 4.065-1.4216 5.3-.9483 1.27-2.3346 1.906-3.7667 1.7-2.8932-.416-4.4277-3.712-3.5179-7.362.0037-.015.0077-.03.0119-.044l5.7579-20.381c.203-.719.9052-1.178 1.6453-1.075zm-4.5165 22.245c-.6773 2.749.6612 3.601 1.0458 3.656.2072.03.5603-.017.9415-.528.4076-.546.8276-1.63.8276-3.511v-9.581z" fill="#e2eaeb" fill-rule="evenodd"/><path d="m130.808 149.997 5.757-20.381v20.381c0 8.303-7.357 6.416-5.757 0z" fill="#fff"/><path clip-rule="evenodd" d="m136.771 128.135c.74.102 1.291.735 1.291 1.481v20.381c0 2.271-.5 4.065-1.422 5.3-.948 1.27-2.334 1.906-3.766 1.7-2.894-.416-4.428-3.712-3.518-7.361.003-.015.007-.03.012-.045l5.757-20.381c.203-.719.906-1.178 1.646-1.075zm-4.517 22.245c-.677 2.75.661 3.601 1.046 3.657.207.03.56-.018.942-.529.407-.546.827-1.63.827-3.511v-9.58z" fill="#e2eaeb" fill-rule="evenodd"/><path d="m103.015 137.123 4.959-14.486 1.759 14.486c0 8.172-8.584 6.315-6.718 0z" fill="#fff"/><path clip-rule="evenodd" d="m108.131 121.15c.693.072 1.245.615 1.329 1.307l1.758 14.486c.007.06.011.12.011.18 0 2.292-.602 4.101-1.687 5.327-1.1 1.242-2.6 1.766-4.048 1.59-1.43-.173-2.737-1.02-3.511-2.353-.782-1.347-.966-3.083-.403-4.987.006-.021.013-.041.019-.061l4.96-14.486c.226-.66.878-1.076 1.572-1.003zm-3.689 16.426c-.359 1.237-.17 2.092.13 2.61.311.535.8.827 1.283.885.464.057.993-.093 1.445-.603.458-.518.921-1.517.936-3.257l-.96-7.913z" fill="#e2eaeb" fill-rule="evenodd"/><path d="m111.778 163.959 2.834-9.417 1.005 9.417c0 5.311-4.905 4.104-3.839 0z" fill="#fff"/><path clip-rule="evenodd" d="m114.751 153.053c.709.066 1.274.623 1.349 1.331l1.005 9.416c.005.053.008.106.008.159 0 1.534-.351 2.819-1.065 3.736-.738.949-1.828 1.432-2.955 1.276-2.312-.319-3.428-2.83-2.763-5.388.005-.019.01-.037.015-.055l2.834-9.416c.205-.682.863-1.125 1.572-1.059zm-1.531 11.307c-.183.725-.072 1.177.041 1.398.059.115.122.179.166.212.043.033.07.037.075.038h.001c.003.001.008.002.023-.005.016-.007.077-.038.16-.144.169-.218.423-.754.434-1.825l-.21-1.967z" fill="#e2eaeb" fill-rule="evenodd"/></svg>