<svg width="31" height="29" viewBox="0 0 31 29" fill="none" xmlns="http://www.w3.org/2000/svg">
<path d="M17.7762 4.4707C15.9719 4.50327 14.6541 5.04149 13.8535 6.09496C12.9053 7.3438 12.733 9.2458 13.3325 11.7339C13.1122 12.004 12.9456 12.4139 13.0107 12.9598C13.139 14.0362 13.57 14.4825 13.9148 14.6606C14.0814 15.5111 14.5507 16.463 15.0027 16.9131V17.143C15.0046 17.4667 14.9989 17.7732 14.9874 18.093C15.244 18.6293 16.0581 19.4721 17.8375 19.4721C19.6303 19.4721 20.4654 18.6121 20.7029 18.0164C20.6934 17.7214 20.701 17.4418 20.7029 17.143V16.9131C21.1416 16.4649 21.5936 15.5111 21.7602 14.6606C22.1146 14.4844 22.5341 14.04 22.6643 12.9598C22.7294 12.4254 22.5724 12.0193 22.3578 11.7492C22.6432 10.7781 23.2255 8.24979 22.2199 6.63127C21.7985 5.95322 21.229 5.51494 20.4994 5.07713C19.6237 4.55177 18.9676 4.4707 17.7762 4.4707ZM21.1473 19.1503C20.5286 19.8648 19.4349 20.4528 17.8375 20.4528C16.2113 20.4528 15.1483 19.8552 14.543 19.1656C14.0756 19.5583 13.3286 19.8533 12.505 20.177C10.5896 20.9297 8.20878 21.8606 8.03065 24.8352L8 25.3562H27.675L27.6443 24.8352C27.4662 21.8606 25.0949 20.9297 23.1853 20.177C22.3578 19.8494 21.6127 19.5487 21.1473 19.1503Z" fill="white"/>
<path d="M9 14.5348H6.12616V17.4707H4.85936V14.5348H2V13.3996H4.85936V10.4707H6.12616V13.3996H9V14.5348Z" fill="white"/>
</svg>
