<svg width="21" height="21" viewBox="0 0 21 21" fill="none" xmlns="http://www.w3.org/2000/svg">
<path fill-rule="evenodd" clip-rule="evenodd" d="M17.25 14.3281V11.4353H18.2143C19.2794 11.4353 20.1429 10.5718 20.1429 9.5067V2.7567C20.1429 1.69158 19.2794 0.828125 18.2143 0.828125H8.57143C7.51072 0.828125 6.64286 1.69598 6.64286 2.7567V9.5067C6.64286 10.5718 7.50631 11.4353 8.57143 11.4353H14.3571L17.25 14.3281ZM14.3572 15.292V13.3634H8.57146C6.44122 13.3634 4.71432 11.6365 4.71432 9.50624V6.61338H2.78575C1.72503 6.61338 0.857178 7.48124 0.857178 8.54195V15.292C0.857178 16.3571 1.72063 17.2205 2.78575 17.2205H3.75003V20.1134L6.64289 17.2205H12.4286C13.4937 17.2205 14.3572 16.3571 14.3572 15.292Z" fill="white"/>
</svg>
