<svg width="14" height="18" viewBox="0 0 14 18" fill="none" xmlns="http://www.w3.org/2000/svg">
<path d="M13.7949 4.7551L9.2449 0.2051C9.1133 0.0735001 8.9355 0 8.75 0H1.4C0.626501 0 0 0.6265 0 1.4V16.1C0 16.8735 0.6265 17.5 1.4 17.5H12.6C13.3735 17.5 14 16.8735 14 16.1V5.25C14 5.0645 13.9265 4.8867 13.7949 4.7551L13.7949 4.7551ZM4.0341 12.6805C4.1958 12.6805 4.3799 12.6434 4.4975 12.607L4.5927 13.4155C4.4534 13.482 4.1811 13.5331 3.8507 13.5331C2.5795 13.5331 1.9768 12.4971 1.9768 11.0859C1.9768 9.2197 3.0128 8.4917 3.9753 8.4917C4.3134 8.4917 4.5486 8.5575 4.6445 8.624L4.4828 9.4325C4.3729 9.3807 4.2476 9.3373 4.0341 9.3373C3.4909 9.3373 2.9981 9.8077 2.9981 11.0348C2.9981 12.2178 3.4461 12.6805 4.0341 12.6805L4.0341 12.6805ZM6.4456 13.5331C6.0494 13.5331 5.6672 13.4302 5.4978 13.335L5.6378 12.5041C5.8359 12.614 6.181 12.6952 6.4533 12.6952C6.902 12.6952 7.1295 12.46 7.1295 12.1366C7.1295 11.7768 6.909 11.6004 6.4904 11.3281C5.8142 10.9165 5.5573 10.395 5.5573 9.9463C5.5573 9.1525 6.0865 8.491 7.1155 8.491C7.4459 8.491 7.7553 8.5792 7.8946 8.6674L7.7399 9.4976C7.6006 9.4094 7.3871 9.3289 7.1155 9.3289C6.7039 9.3289 6.5051 9.5788 6.5051 9.8434C6.5051 10.1374 6.6521 10.2914 7.1813 10.6148C7.8428 11.0117 8.078 11.5115 8.078 12.033C8.0773 12.9374 7.4081 13.5331 6.4456 13.5331H6.4456ZM10.892 13.489H9.8119L8.7094 8.5358H9.7748L10.1276 10.6743C10.2081 11.2112 10.311 11.8132 10.3768 12.3942H10.3915C10.4573 11.8062 10.5385 11.2112 10.6267 10.6526L10.9641 8.5365H12.0225L10.892 13.489ZM9.1 5.6C8.7136 5.6 8.4 5.2864 8.4 4.9V1.3328L12.6672 5.6H9.1Z" fill="#BBD2D5"/>
</svg>
