<svg width="14" height="18" viewBox="0 0 14 18" fill="none" xmlns="http://www.w3.org/2000/svg">
<path fill-rule="evenodd" clip-rule="evenodd" d="M0 1.4C0 0.626501 0.626501 0 1.4 0H8.75C8.9355 0 9.11332 0.0734782 9.24492 0.205079L13.7949 4.75508C13.9265 4.88668 14 5.0645 14 5.25V16.1C14 16.8735 13.3735 17.5 12.6 17.5H1.4C0.6265 17.5 0 16.8735 0 16.1V1.4ZM12.667 5.6L8.4 1.33301L8.4 4.9C8.4 5.2864 8.7136 5.6 9.1 5.6H12.667ZM8.69476 10.557C8.69476 11.1664 8.55749 11.6395 8.28294 11.9764C8.01037 12.3133 7.63113 12.4817 7.14524 12.4817C6.66132 12.4817 6.2811 12.3154 6.00458 11.9826C5.72806 11.6478 5.58782 11.1799 5.58387 10.5789V9.80213C5.58387 9.17825 5.72114 8.69162 5.99569 8.34224C6.27024 7.99078 6.65145 7.81505 7.13932 7.81505C7.61928 7.81505 7.99753 7.98766 8.27405 8.33288C8.55057 8.67602 8.69081 9.15849 8.69476 9.7803V10.557ZM7.82075 9.79589C7.82075 9.38621 7.76544 9.08154 7.65483 8.8819C7.54423 8.68226 7.37239 8.58243 7.13932 8.58243C6.90822 8.58243 6.73737 8.67914 6.62676 8.87254C6.51615 9.06387 6.45887 9.35605 6.45492 9.7491V10.557C6.45492 10.9542 6.51121 11.2475 6.6238 11.4367C6.73638 11.6239 6.9102 11.7175 7.14524 11.7175C7.37239 11.7175 7.54126 11.626 7.65187 11.443C7.76248 11.2579 7.81877 10.9719 7.82075 10.5851V9.79589ZM1.75007 12.4193V7.87744H3.07738C3.45661 7.87744 3.79535 7.96791 4.0936 8.14883C4.39383 8.32768 4.62789 8.58347 4.79578 8.91621C4.96367 9.24687 5.04761 9.62328 5.04761 10.0454V10.2544C5.04761 10.6766 4.96465 11.052 4.79874 11.3806C4.6348 11.7091 4.40272 11.9639 4.10249 12.1448C3.80227 12.3258 3.46353 12.4173 3.08627 12.4193H1.75007ZM2.63889 8.63546V11.6676H3.06849C3.41612 11.6676 3.68178 11.548 3.86547 11.3088C4.04916 11.0697 4.14298 10.7276 4.14693 10.2825V10.0423C4.14693 9.58065 4.05608 9.23128 3.87436 8.9942C3.69264 8.75504 3.42698 8.63546 3.07738 8.63546H2.63889ZM11.8294 12.0824C12.0842 11.8162 12.2224 11.4242 12.2441 10.9064H11.3731C11.3612 11.2142 11.3119 11.4274 11.225 11.5459C11.138 11.6624 10.98 11.7206 10.7509 11.7206C10.5178 11.7206 10.3529 11.6364 10.2561 11.4679C10.1613 11.2995 10.1139 10.9896 10.1139 10.5383V9.68047C10.1198 9.28743 10.1712 9.00564 10.268 8.83511C10.3648 8.6625 10.5297 8.5762 10.7628 8.5762C10.9919 8.5762 11.1489 8.63754 11.2338 8.76024C11.3207 8.88086 11.3682 9.1013 11.3761 9.42156H12.2501C12.2165 8.90374 12.0772 8.50653 11.8323 8.22994C11.5894 7.95335 11.2329 7.81505 10.7628 7.81505C10.2848 7.81505 9.91147 7.98454 9.64284 8.32352C9.37422 8.66042 9.23991 9.14081 9.23991 9.7647V10.529C9.23991 11.1549 9.36928 11.6374 9.62803 11.9764C9.88875 12.3133 10.263 12.4817 10.7509 12.4817C11.2151 12.4817 11.5746 12.3486 11.8294 12.0824Z" fill="#BBD2D5"/>
</svg>
