<svg width="21" height="22" viewBox="0 0 21 22" fill="none" xmlns="http://www.w3.org/2000/svg">
<path d="M18.4281 0.970703H2.30351C1.03082 0.970703 0 2.00152 0 3.27421V19.3988C0 20.6714 1.03082 21.7023 2.30351 21.7023H18.4281C19.7007 21.7023 20.7316 20.6714 20.7316 19.3988V3.27421C20.7316 2.00152 19.7007 0.970703 18.4281 0.970703ZM19.2423 12.1508L15.4416 15.9516C15.217 16.1762 14.9221 16.289 14.6273 16.289C14.3324 16.289 14.0376 16.1762 13.813 15.9516C13.3626 15.5012 13.3626 14.7733 13.813 14.323L15.6477 12.4882H6.91052C6.2736 12.4882 5.75877 11.9734 5.75877 11.3365C5.75877 10.6996 6.2736 10.1847 6.91052 10.1847H15.6477L13.813 8.34999C13.3626 7.89965 13.3626 7.17174 13.813 6.72141C14.2633 6.27107 14.9912 6.27107 15.4416 6.72141L19.2423 10.5222C19.6927 10.9725 19.6927 11.7004 19.2423 12.1508V12.1508Z" fill="white"/>
</svg>
