<svg width="22" height="22" viewBox="0 0 22 22" fill="none" xmlns="http://www.w3.org/2000/svg">
<path d="M1.16443 0.998512C0.827119 0.998868 0.5065 1.14533 0.285387 1.40005C0.0642729 1.65478 -0.0356553 1.9928 0.0114107 2.32682V6.83758C0.0054665 7.25792 0.226308 7.64889 0.58937 7.8608C0.952433 8.0727 1.40147 8.0727 1.76453 7.8608C2.12759 7.64889 2.34843 7.25792 2.34249 6.83758V4.98911L6.76334 9.40996C7.05567 9.71445 7.48978 9.8371 7.89823 9.73062C8.30669 9.62414 8.62566 9.30516 8.73214 8.89671C8.83862 8.48826 8.71597 8.05415 8.41148 7.76182L3.99063 3.34097H5.8391C6.25944 3.34691 6.65041 3.12607 6.86232 2.76301C7.07422 2.39995 7.07422 1.95091 6.86232 1.58785C6.65041 1.22479 6.25944 1.00395 5.8391 1.00989H1.32037C1.2687 1.00261 1.21661 0.99881 1.16443 0.998509L1.16443 0.998512ZM19.8028 0.998512C19.7597 0.999927 19.7168 1.00373 19.6742 1.00989H15.1634C14.7431 1.00395 14.3521 1.22479 14.1402 1.58785C13.9283 1.95092 13.9283 2.39995 14.1402 2.76301C14.3521 3.12607 14.7431 3.34692 15.1634 3.34097H17.0119L12.591 7.76182C12.2865 8.05416 12.1639 8.48826 12.2704 8.89671C12.3768 9.30517 12.6958 9.62414 13.1043 9.73062C13.5127 9.8371 13.9468 9.71445 14.2392 9.40996L18.66 4.98912V6.83759C18.6541 7.25792 18.8749 7.6489 19.238 7.8608C19.601 8.0727 20.0501 8.0727 20.4131 7.8608C20.7762 7.6489 20.997 7.25792 20.9911 6.83759V2.31885C21.0366 1.97992 20.931 1.6381 20.7022 1.38392C20.4735 1.12974 20.1446 0.988829 19.8028 0.998515L19.8028 0.998512ZM7.56464 13.2367C7.26184 13.2457 6.97444 13.3722 6.76334 13.5895L2.34249 18.0104V16.1619C2.34843 15.7416 2.12759 15.3506 1.76453 15.1387C1.40147 14.9268 0.952433 14.9268 0.58937 15.1387C0.226308 15.3506 0.0054665 15.7416 0.0114107 16.1619V20.6806C-0.0369141 21.0419 0.086526 21.405 0.345036 21.6619C0.603547 21.9189 0.967364 22.0401 1.32833 21.9896H5.8391C6.25944 21.9955 6.65041 21.7747 6.86231 21.4116C7.07422 21.0486 7.07422 20.5995 6.86231 20.2365C6.65041 19.8734 6.25944 19.6526 5.8391 19.6585H3.99063L8.41148 15.2377C8.7562 14.9026 8.85985 14.3902 8.67248 13.9475C8.48512 13.5048 8.04518 13.2225 7.56464 13.2367L7.56464 13.2367ZM13.4026 13.2367C12.9285 13.2372 12.502 13.5249 12.3238 13.9642C12.1456 14.4035 12.2513 14.907 12.591 15.2377L17.0119 19.6585H15.1634C14.7431 19.6526 14.3521 19.8734 14.1402 20.2365C13.9283 20.5995 13.9283 21.0486 14.1402 21.4116C14.3521 21.7747 14.7431 21.9955 15.1634 21.9896H19.6821C20.0434 22.0379 20.4065 21.9145 20.6634 21.656C20.9204 21.3974 21.0416 21.0336 20.9911 20.6727V16.1619C20.997 15.7416 20.7762 15.3506 20.4131 15.1387C20.0501 14.9268 19.601 14.9268 19.238 15.1387C18.8749 15.3506 18.6541 15.7416 18.66 16.1619V18.0104L14.2392 13.5895C14.0195 13.3637 13.7177 13.2364 13.4026 13.2367V13.2367Z" fill="white"/>
</svg>
