<svg fill="none" height="15" viewBox="0 0 15 15" width="15" xmlns="http://www.w3.org/2000/svg"><path d="m2.4375 1.62891c-.72119 0-1.3125.59131-1.3125 1.3125v7c0 .72119.59131 1.31249 1.3125 1.31249h1.3125v.4375c0 .7212.59131 1.3125 1.3125 1.3125h7c.7212 0 1.3125-.5913 1.3125-1.3125v-6.99999c0-.72119-.5913-1.3125-1.3125-1.3125h-1.3125v-.4375c0-.72119-.5913-1.3125-1.3125-1.3125zm0 .875h7c.24609 0 .4375.1914.4375.4375v7c0 .24609-.19141.43749-.4375.43749h-7c-.24609 0-.4375-.1914-.4375-.43749v-7c0-.2461.19141-.4375.4375-.4375zm8.3125 1.75h1.3125c.2461 0 .4375.1914.4375.4375v6.99999c0 .2461-.1914.4375-.4375.4375h-7c-.24609 0-.4375-.1914-.4375-.4375v-.4375h4.8125c.7212 0 1.3125-.5913 1.3125-1.31249z" fill="#fff"/></svg>