<svg fill="none" height="32" viewBox="0 0 32 32" width="32" xmlns="http://www.w3.org/2000/svg"><path d="m4.44445 10.6667c-2.4546 0-4.44445 1.9898-4.44445 4.4444s1.98984 4.4445 4.44445 4.4445c2.45459 0 4.44444-1.9899 4.44444-4.4445s-1.98984-4.4444-4.44444-4.4444zm24.88885 1.7777c-1.4727 0-2.6666 1.194-2.6666 2.6667 0 1.4728 1.1939 2.6667 2.6666 2.6667 1.4728 0 2.6667-1.1939 2.6667-2.6667 0-1.4727-1.1939-2.6667-2.6667-2.6667zm-1.7777 8.8889c-1.4728 0-2.6667 1.1939-2.6667 2.6667s1.1939 2.6667 2.6667 2.6667c1.4727 0 2.6666-1.1939 2.6666-2.6667s-1.1939-2.6667-2.6666-2.6667zm-8.8889 5.3334c-1.4728 0-2.6667 1.1939-2.6667 2.6666 0 1.4728 1.1939 2.6667 2.6667 2.6667 1.4727 0 2.6666-1.1939 2.6666-2.6667 0-1.4727-1.1939-2.6666-2.6666-2.6666zm-9.77781-3.5556c-1.96368 0-3.55556 1.5919-3.55556 3.5556 0 1.9636 1.59188 3.5555 3.55556 3.5555 1.96371 0 3.55551-1.5919 3.55551-3.5555 0-1.9637-1.5918-3.5556-3.55551-3.5556zm8.88891-23.1111c-.9819 0-1.7778.795939-1.7778 1.77778 0 .98184.7959 1.77778 1.7778 1.77778.9818 0 1.7778-.79594 1.7778-1.77778 0-.981841-.796-1.77778-1.7778-1.77778zm8.8889 3.55555c-.9819 0-1.7778.79594-1.7778 1.77778s.7959 1.77778 1.7778 1.77778c.9818 0 1.7777-.79594 1.7777-1.77778s-.7959-1.77778-1.7777-1.77778zm-17.77781 0c-.98184 0-1.77778.79594-1.77778 1.77778s.79594 1.77778 1.77778 1.77778 1.77781-.79594 1.77781-1.77778-.79597-1.77778-1.77781-1.77778z" fill="#bbd2d5"/></svg>