<svg fill="none" height="12" viewBox="0 0 12 12" width="12" xmlns="http://www.w3.org/2000/svg" xmlns:xlink="http://www.w3.org/1999/xlink"><mask id="a" height="12" maskUnits="userSpaceOnUse" width="10" x="1" y="0"><path clip-rule="evenodd" d="m7.49998 1.50029v-.50029c0-.276142.22386-.5.5-.5s.5.223858.5.5v.50029h1.00002c.8284 0 1.5.67157 1.5 1.5v2 5.00001c0 .8284-.6716 1.5-1.5 1.5h-7c-.82843 0-1.5-.6716-1.5-1.5v-5.00001-2c0-.82843.67157-1.5 1.5-1.5h1.00002v-.50029c0-.276142.22385-.5.5-.5.27614 0 .5.223858.5.5v.50029zm-5.49996 4v4.50031c0 .2761.22386.5.5.5h7c.27614 0 .49998-.2239.49998-.5v-4.50031zm7.99998-1h-7.99998v-1.49971c0-.27615.22386-.5.5-.5h1v.49942c0 .27614.22385.5.5.5.27614 0 .5-.22386.5-.5v-.49942h2.99996v.49942c0 .27614.22386.5.5.5s.5-.22386.5-.5v-.49942h1.00004c.27614 0 .49998.22385.49998.5z" fill="#fff" fill-rule="evenodd"/></mask><path clip-rule="evenodd" d="m7.49998 1.50029v-.50029c0-.276142.22386-.5.5-.5s.5.223858.5.5v.50029h1.00002c.8284 0 1.5.67157 1.5 1.5v2 5.00001c0 .8284-.6716 1.5-1.5 1.5h-7c-.82843 0-1.5-.6716-1.5-1.5v-5.00001-2c0-.82843.67157-1.5 1.5-1.5h1.00002v-.50029c0-.276142.22385-.5.5-.5.27614 0 .5.223858.5.5v.50029zm-5.49996 4v4.50031c0 .2761.22386.5.5.5h7c.27614 0 .49998-.2239.49998-.5v-4.50031zm7.99998-1h-7.99998v-1.49971c0-.27615.22386-.5.5-.5h1v.49942c0 .27614.22385.5.5.5.27614 0 .5-.22386.5-.5v-.49942h2.99996v.49942c0 .27614.22386.5.5.5s.5-.22386.5-.5v-.49942h1.00004c.27614 0 .49998.22385.49998.5z" fill="#496174" fill-rule="evenodd"/><g mask="url(#a)"><path d="m0 0h12v12h-12z" fill="#496174"/></g></svg>