<svg fill="none" height="12" viewBox="0 0 11 12" width="11" xmlns="http://www.w3.org/2000/svg"><g fill="#7634e1" stroke="#7634e1" stroke-width=".5"><path d="m4.21634 6.23627c.47793.63893 1.2098 1.03878 2.00566 1.09578s1.57724-.23448 2.14134-.79878l1.37494-1.37494c1.04772-1.08473 1.03282-2.79992-.02791-3.86069-1.06077-1.060763-2.77596-1.075668-3.855-.03349l-.79307.78839c-.17951.17846-.18036.46866-.00189.64817.17847.17952.46867.18036.64818.00189l.78833-.78375c.71463-.69014 1.85809-.6802 2.56527.02698.70718.70717.71711 1.85064.02233 2.57l-1.36942 1.36932c-.37612.37626-.89704.57058-1.42762.53258-.53057-.038-1.01849-.30457-1.3371-.73053-.15162-.20269-.43885-.2441-.64155-.09248s-.24411.43885-.09249.64155z"/><path d="m6.78362 4.77079c-.47792-.63894-1.20979-1.03879-2.00565-1.09579-.79587-.057-1.57725.23448-2.14135.79879l-1.37494 1.37494c-1.047753 1.08472-1.032849 2.79991.02792 3.86068 1.06077 1.06079 2.77596 1.07569 3.855.0335l.78943-.78934c.17899-.17899.17899-.46919 0-.64818s-.46919-.17899-.64818 0l-.78375.78375c-.71368.6892-1.85714.67927-2.56432-.02791s-.71711-1.85064-.02233-2.57l1.36941-1.36932c.37613-.37626.89705-.57058 1.42763-.53258.53057.038 1.01848.30457 1.3371.73052.15162.2027.43885.2441.64155.09249.2027-.15162.2441-.43886.09248-.64155z"/></g></svg>