<svg fill="none" height="20" viewBox="0 0 21 20" width="21" xmlns="http://www.w3.org/2000/svg"><path d="m10.6003.275391c-5.37593 0-9.749958 4.374029-9.749958 9.750009 0 5.376 4.374028 9.75 9.749958 9.75 5.376 0 9.75-4.374 9.75-9.75 0-5.37598-4.374-9.750009-9.75-9.750009zm0 1.499999c4.5645 0 8.25 3.68555 8.25 8.25001 0 4.5644-3.6855 8.25-8.25 8.25-4.56441 0-8.24996-3.6856-8.24996-8.25 0-4.56446 3.68555-8.25001 8.24996-8.25001zm0 2.25c-2.06246 0-3.74996 1.6875-3.74996 3.75 0 1.13672.53027 2.14746 1.33594 2.83591-1.6875.876-2.83594 2.6397-2.83594 4.6641h1.5c0-2.0801 1.66993-3.75 3.74996-3.75 2.0801 0 3.75 1.6699 3.75 3.75h1.5c0-2.0244-1.1484-3.7881-2.8359-4.6641.8057-.68845 1.3359-1.69919 1.3359-2.83591 0-2.0625-1.6875-3.75-3.75-3.75zm0 1.5c1.251 0 2.25.99902 2.25 2.25s-.999 2.25001-2.25 2.25001c-1.25093 0-2.24996-.99903-2.24996-2.25001s.99903-2.25 2.24996-2.25z" fill="#59c1c9"/></svg>