<svg fill="none" height="22" viewBox="0 0 20 22" width="20" xmlns="http://www.w3.org/2000/svg"><path d="m9.7762.785156c-1.8043.032562-3.1221.570794-3.92274 1.624264-.94812 1.24884-1.12051 3.15083-.52099 5.63893-.22027.27007-.38691.67997-.32178 1.22586.12833 1.07649.55929 1.52279.90406 1.70089.16664.8504.63592 1.8024 1.08795 2.2525v.2298c.00192.3237-.00383.6302-.01532.9501.25666.5363 1.07071 1.3791 2.85011 1.3791 1.79281 0 2.62791-.86 2.86541-1.4557-.0095-.295-.0019-.5747 0-.8735v-.2298c.4387-.4482.8907-1.4021 1.0573-2.2525.3544-.1762.7739-.6206.9041-1.70089.0651-.5344-.0919-.94046-.3065-1.21053.2854-.97111.8677-3.49944-.1379-5.11795-.4214-.67805-.9909-1.11634-1.7205-1.55414-.8757-.525371-1.5318-.606434-2.7232-.606434zm3.3711 14.679644c-.6187.7144-1.7124 1.3025-3.30981 1.3025-1.62617 0-2.68922-.5977-3.29448-1.2872-.46736.3927-1.21437.6876-2.03799 1.0113-1.9154.7528-4.296241 1.6837-4.4743736 4.6583l-.0306464.521h19.675l-.0307-.521c-.1781-2.9746-2.5494-3.9055-4.459-4.6583-.8275-.3275-1.5726-.6282-2.038-1.0266z" fill="#fff"/></svg>