<svg fill="none" height="10" viewBox="0 0 10 10" width="10" xmlns="http://www.w3.org/2000/svg"><path d="m4.66667 0c-1.83334 0-3.33334 1.5-3.33334 3.33333 0 1.01042.47136 1.90886 1.1875 2.52084-1.5.77864-2.52083 2.34635-2.52083 4.14583h1.33333c0-1.84896 1.48438-3.33333 3.33334-3.33333s3.33333 1.48437 3.33333 3.33333h1.33333c0-1.79948-1.02083-3.36719-2.52083-4.14583.71615-.61198 1.1875-1.51042 1.1875-2.52084 0-1.83333-1.5-3.33333-3.33333-3.33333zm0 1.33333c1.11198 0 2 .88802 2 2s-.88802 2-2 2-2-.88802-2-2 .88802-2 2-2z" fill="#7634e1"/></svg>