<svg fill="none" height="28" viewBox="0 0 27 28" width="27" xmlns="http://www.w3.org/2000/svg"><g fill="#fff"><path d="m7.19788 1.40737c-.38748-.429212-1.04918-.461913-1.47805-.07494-.42878.38833-.46225 1.04918-.07477 1.47839l16.57104 18.33748c.3875.4292 1.0493.4619 1.4781.0749.4288-.3883.4622-1.0491.0748-1.4783l-3.6564-4.0455c.5241-1.0192.8203-2.1733.8203-3.3955v-4.27035c.0055-.38561-.1969-.7426-.5294-.93745-.3326-.19348-.7439-.19348-1.0765 0-.3326.19485-.5348.55184-.5294.93745v4.27035c0 .5777-.0906 1.1336-.2584 1.6541l-1.877-2.0779v-7.29658c0-1.76998-1.4338-3.2034-3.203-3.2034-1.7691 0-3.2029 1.43342-3.2029 3.2034v.20848z"/><path d="m10.2563 12.3039v-2.35594l4.6925 5.19274c-.445.2344-.9518.3666-1.4896.3666-1.7691 0-3.2029-1.4335-3.2029-3.2034z"/><path d="m14.9711 17.4217c-.4421.1294-.9083.203-1.3909.2139-.0457-.0055-.0917-.0082-.1377-.0082l-.1167.0082c-2.8985-.0695-5.20495-2.4145-5.20495-5.3317v-4.27035c.004-.28886-.10909-.56683-.31331-.76985-.2043-.20439-.48243-.31748-.77104-.31203-.5888.00818-1.05897.49325-1.05097 1.08188v4.27035c0 3.7525 2.79455 6.8659 6.40607 7.3878v2.221h-3.203c-.3851-.0054-.7432.1976-.93737.53-.19408.3325-.19408.744 0 1.0765.19417.3324.55227.5355.93737.53h4.0913c.1153.0177.233.0177.3482 0h4.1019c.385.0055.7431-.1976.9372-.53.1941-.3325.1941-.744 0-1.0765-.1183-.203-.2977-.3569-.507-.4455-.1339-.0572-.28-.0872-.4302-.0845h-3.2031v-2.221c1.2249-.1771 2.3559-.6513 3.3156-1.3489l-1.4329-1.5861c-.438.2889-.9217.5151-1.4385.665z"/></g></svg>