<svg fill="none" height="28" viewBox="0 0 27 28" width="27" xmlns="http://www.w3.org/2000/svg"><path d="m13.5 1.375c-1.7901 0-3.241 1.43418-3.241 3.20369v7.72271c0 1.7695 1.4509 3.2036 3.241 3.2036s3.241-1.4341 3.241-3.2036v-7.72271c0-1.76951-1.4509-3.20369-3.241-3.20369zm-6.49893 5.5723c-.59583.00921-1.07163.49352-1.06347 1.0825v4.2716c0 3.7526 2.82772 6.8674 6.4821 7.3897v2.2213h-3.24107c-.38961-.0054-.75201.1969-.94842.5296-.19641.3326-.19641.744 0 1.0767.19642.3326.55881.535.94842.5295h4.13987c.1167.0191.2357.0191.3524 0h4.1505c.3896.0055.752-.1969.9484-.5295.1964-.3327.1964-.7441 0-1.0767-.1964-.3327-.5588-.535-.9484-.5296h-3.2411v-2.2213c3.6544-.5223 6.4821-3.6371 6.4821-7.3897v-4.2716c.0055-.38512-.1992-.74334-.5357-.93749s-.7528-.19415-1.0893 0-.5412.55237-.5357.93749v4.2716c0 2.9211-2.3405 5.2689-5.2793 5.3332-.0462-.0058-.0927-.0085-.1393-.0084-.0395.0007-.0789.0035-.1181.0084-2.9329-.0708-5.26671-2.4163-5.26671-5.3332v-4.2716c.004-.28865-.11039-.56661-.31709-.77054-.20671-.20393-.48813-.31647-.78013-.31196z" fill="#fff"/></svg>