<svg width="14" height="17" viewBox="0 0 14 17" fill="none" xmlns="http://www.w3.org/2000/svg">
<path d="M10.0223 0.6875C8.98986 0.6875 7.95845 1.07779 7.18507 1.85635L1.5736 7.50468C-0.524534 9.61741 -0.524534 13.0136 1.5736 15.1263C1.63828 15.1914 1.71601 15.2434 1.80217 15.2792C1.80353 15.2796 1.8049 15.28 1.80627 15.2805C3.92018 17.1919 7.21755 17.1705 9.24763 15.1263L13.1948 11.1523C13.3768 10.9806 13.4462 10.728 13.3761 10.4933C13.3059 10.2585 13.1072 10.0789 12.8578 10.0247C12.6083 9.97046 12.3477 10.0503 12.1779 10.2329L8.23072 14.2069C6.65279 15.7958 4.16981 15.7958 2.59188 14.2069C1.01388 12.618 1.01388 10.0131 2.59188 8.42409L8.20198 2.77575C9.22837 1.74248 10.8176 1.74248 11.844 2.77575C12.8702 3.80892 12.8702 5.51424 11.844 6.54741L6.73752 11.689C6.26178 12.1676 5.56734 12.1673 5.0924 11.689C4.61746 11.2108 4.61746 10.4055 5.0924 9.92727L9.19972 5.79125C9.38167 5.61962 9.45114 5.36702 9.38097 5.13226C9.31079 4.89749 9.11212 4.71787 8.86267 4.66366C8.61321 4.60944 8.35262 4.68924 8.18281 4.87184L4.07413 9.00786C3.0789 10.01 3.0789 11.6063 4.07413 12.6084C4.14055 12.6751 4.22069 12.728 4.30953 12.7638C5.31906 13.5686 6.82713 13.5413 7.75443 12.6084L12.8609 7.46681C14.3439 5.97385 14.3652 3.63738 13.0046 2.07314C12.9718 1.9927 12.923 1.91909 12.8609 1.85635C12.0875 1.07779 11.0547 0.687501 10.0223 0.687501L10.0223 0.6875Z" fill="#59C1C9"/>
</svg>
