<svg width="14" height="18" viewBox="0 0 14 18" fill="none" xmlns="http://www.w3.org/2000/svg">
<path d="M1.4 1.39724e-06C0.626501 1.39724e-06 0 0.626501 0 1.4V16.1C0 16.8735 0.6265 17.5 1.4 17.5H12.6C13.3735 17.5 14 16.8735 14 16.1V5.25C14 5.0645 13.9265 4.88668 13.7949 4.75508L9.24492 0.205079C9.11332 0.0734782 8.9355 0 8.75 0L1.4 1.39724e-06ZM8.4 1.33301L12.667 5.6H9.1C8.7136 5.6 8.4 5.2864 8.4 4.9L8.4 1.33301ZM3.19785 8.51895C3.41275 8.51895 3.62433 8.5392 3.83223 8.5791C4.04013 8.619 4.22557 8.69599 4.38867 8.81289C4.55177 8.9298 4.68569 9.09435 4.78789 9.30645C4.89009 9.51925 4.94102 9.79613 4.94102 10.1363C4.94172 10.4443 4.8986 10.7048 4.8125 10.9197C4.7257 11.1346 4.6108 11.3096 4.4666 11.4447C4.3217 11.5798 4.15384 11.6778 3.96484 11.7387C3.77514 11.7996 3.58125 11.8303 3.38105 11.8303H3.28945C3.24675 11.8303 3.20303 11.829 3.15683 11.8262C3.11063 11.8234 3.06421 11.8215 3.02011 11.8166C2.97601 11.8124 2.94468 11.8065 2.92578 11.8016V13.4887H2.04394V8.63789C2.21194 8.60079 2.39675 8.57139 2.59765 8.55039C2.79785 8.52939 2.99765 8.51895 3.19785 8.51895H3.19785ZM6.75391 8.51895C7.14101 8.51895 7.46424 8.57905 7.72324 8.69805C7.98224 8.81705 8.19058 8.98417 8.34668 9.20117C8.50348 9.41817 8.61311 9.67874 8.67891 9.98184C8.74401 10.2849 8.77734 10.6246 8.77734 10.9977C8.77734 11.3386 8.74601 11.6637 8.68301 11.9738C8.62001 12.2839 8.50968 12.5569 8.35078 12.7928C8.19118 13.0287 7.97637 13.2161 7.70547 13.3561C7.43457 13.4961 7.09508 13.5666 6.68418 13.5666C6.62398 13.5666 6.54099 13.5633 6.43809 13.5584C6.33589 13.5535 6.2288 13.549 6.1168 13.542C6.0048 13.535 5.89704 13.5271 5.79414 13.5201C5.69194 13.5131 5.61225 13.5053 5.55625 13.4955V8.58867C5.64025 8.57467 5.73563 8.56423 5.84063 8.55723C5.94493 8.55023 6.05201 8.54372 6.16192 8.53672C6.27112 8.52972 6.37827 8.52515 6.48047 8.52305C6.58337 8.52095 6.67411 8.51895 6.75391 8.51895L6.75391 8.51895ZM9.47734 8.58867H11.9273V9.40078H10.3605V10.675H11.8016V11.4871H10.3605V13.4887H9.47734V8.58867ZM3.28262 9.30235C3.13842 9.30235 3.01958 9.31479 2.92578 9.33789V11.0113C2.95378 11.0211 3.00601 11.0289 3.08301 11.0359C3.16001 11.0429 3.2136 11.0455 3.2416 11.0455C3.3438 11.0455 3.44175 11.0325 3.53555 11.0045C3.62865 10.9765 3.71161 10.9288 3.78301 10.8609C3.85581 10.793 3.91397 10.6997 3.95527 10.5807C3.99797 10.4617 4.01816 10.3115 4.01816 10.1295C4.01816 9.9755 3.99791 9.84421 3.95801 9.73711C3.91811 9.63001 3.86525 9.54445 3.79805 9.48145C3.73015 9.41845 3.65109 9.37273 3.56289 9.34473C3.47399 9.31673 3.38062 9.30235 3.28262 9.30235ZM6.84551 9.33106C6.77131 9.33106 6.69556 9.33236 6.61855 9.33516C6.54225 9.33726 6.48145 9.34247 6.43945 9.35157V12.7258C6.45415 12.73 6.47828 12.7346 6.51328 12.7367C6.54828 12.7388 6.58619 12.7415 6.62539 12.7436C6.66459 12.7457 6.70113 12.7483 6.73613 12.7504C6.77113 12.7525 6.79596 12.7545 6.80996 12.7545C7.01996 12.7545 7.19233 12.7048 7.32813 12.6068C7.46253 12.5088 7.57038 12.3776 7.64668 12.2145C7.72368 12.0514 7.77654 11.8633 7.80664 11.6512C7.83674 11.4391 7.85313 11.2157 7.85313 10.9826C7.85313 10.7677 7.83938 10.5615 7.81348 10.3606C7.78968 10.1604 7.73999 9.98335 7.66719 9.83145C7.59439 9.68025 7.49324 9.55878 7.36094 9.46778C7.22794 9.37678 7.05481 9.33106 6.84551 9.33106L6.84551 9.33106Z" fill="#BBD2D5"/>
</svg>
