<svg id="SvgjsSvg1017" width="288" height="288" xmlns="http://www.w3.org/2000/svg" version="1.1" xmlns:xlink="http://www.w3.org/1999/xlink" xmlns:svgjs="http://svgjs.com/svgjs"><defs id="SvgjsDefs1018"></defs><g id="SvgjsG1019"><svg xmlns="http://www.w3.org/2000/svg" width="288" height="288" data-name="Layer 1" viewBox="0 0 24 24"><path d="m12.48 4.36h9.55v1.91h-9.55z" fill="#ffffff" class="color000 svgShape"></path><path d="M18.88 9.81l-1.35-1.35 3.14-3.14-3.14-3.15 1.35-1.35 4.49 4.5zM16.14 23.45c-3 0-6.78-1.8-10-5.07-4.9-4.9-6.51-11-3.67-13.8l3.29-3.34 6.47 6.47-2.59 2.62a1.12 1.12 0 000 1.58l2.92 2.92a1.11 1.11 0 001.58 0l2.62-2.58 6.47 6.47-3.33 3.33a5.14 5.14 0 01-3.76 1.4zm-10.38-19.51l-2 2c-2 2-.33 7.1 3.67 11.1s9.1 5.69 11.11 3.67l2-2-3.78-3.78-1.27 1.25a3 3 0 01-4.27 0l-2.92-2.92a3 3 0 01-.01-4.26l1.25-1.28z" fill="#ffffff" class="color000 svgShape"></path></svg></g></svg>