<svg id="SvgjsSvg1012" width="28" height="28" xmlns="http://www.w3.org/2000/svg" version="1.1" xmlns:xlink="http://www.w3.org/1999/xlink" xmlns:svgjs="http://svgjs.com/svgjs"><defs id="SvgjsDefs1013"></defs><g id="SvgjsG1014"><svg xmlns="http://www.w3.org/2000/svg" width="28" height="28" data-name="Layer 1" viewBox="0 0 24 24"><path d="m16.41 23.43c-3.14 0-7.11-1.89-10.53-5.31-5.13-5.12-6.82-11.49-3.88-14.47l3.53-3.49 6.78 6.78-2.71 2.74a1.18 1.18 0 0 0 0 1.65l3.07 3.07a1.18 1.18 0 0 0 1.65 0l2.74-2.71 6.78 6.78-3.49 3.53a5.4 5.4 0 0 1 -3.94 1.43zm-10.88-20.43-2.08 2.07c-2.11 2.11-.35 7.44 3.85 11.63s9.52 6 11.63 3.85l2.07-2.08-4-4-1.33 1.31a3.18 3.18 0 0 1 -4.48 0l-3-3.03a3.18 3.18 0 0 1 0-4.48l1.3-1.33z" fill="#ffffff" class="color000 svgShape"></path></svg></g></svg>