<svg id="SvgjsSvg1001" width="28" height="28" xmlns="http://www.w3.org/2000/svg" version="1.1" xmlns:xlink="http://www.w3.org/1999/xlink" xmlns:svgjs="http://svgjs.com/svgjs"><defs id="SvgjsDefs1002"></defs><g id="SvgjsG1008" transform="matrix(1,0,0,1,0,0)"><svg xmlns="http://www.w3.org/2000/svg" width="28" height="28" data-name="Layer 1" viewBox="0 0 24 24"><path d="m-2.84 11.04h29.69v1.91h-29.69z" transform="rotate(-45 11.999 12.002)" fill="#ffffff" class="color000 svgShape"></path><path d="M4.27 16.91c-3.86-4.63-4.84-9.82-2.27-12.33l3.28-3.34 6.47 6.47-2.58 2.61a1.11 1.11 0 000 1.58l.12.12-1.35 1.35-.11-.11a3 3 0 01-.02-4.26l1.25-1.28-3.78-3.78-2 2c-1.74 1.74-.67 6 2.44 9.76zM15.68 23.44c-2.55 0-5.68-1.29-8.59-3.71q-.75-.63-1.47-1.35l1.38-1.38c.44.44.89.85 1.34 1.23 3.73 3.11 8 4.18 9.76 2.44l2-2-3.78-3.78-1.32 1.3a3 3 0 01-4.28 0l-1.43-1.47 1.34-1.35 1.47 1.46a1.12 1.12 0 001.58 0l2.61-2.58 6.47 6.47-3.34 3.33a5.09 5.09 0 01-3.74 1.39z" fill="#ffffff" class="color000 svgShape"></path></svg></g></svg>