<svg width="12" height="12" viewBox="0 0 12 12" fill="none" xmlns="http://www.w3.org/2000/svg">
<path fill-rule="evenodd" clip-rule="evenodd" d="M0.0337846 4.67995C0.0110756 4.62141 -0.000150028 4.55955 1.51384e-06 4.49777V1.49891C1.51384e-06 1.22277 0.223859 0.998912 0.500001 0.998912C0.776144 0.998912 1 1.22277 1 1.49891V3.3431L2.46636 1.96545C3.68 0.751195 5.43174 0.244502 7.1062 0.623368C8.78065 1.00223 10.12 2.29797 10.6927 3.9164C10.7848 4.17673 10.6485 4.46244 10.3882 4.55456C10.1278 4.64668 9.84212 4.51032 9.75 4.25C9.29183 2.95525 8.22508 1.90181 6.88552 1.59871C5.54595 1.29562 4.14456 1.70097 3.16239 2.68329L1.76228 3.99891H3.5C3.77614 3.99891 4 4.22277 4 4.49891C4 4.77505 3.77614 4.99891 3.5 4.99891H0.500001C0.290098 4.99891 0.110404 4.86957 0.036275 4.68624L0.0337846 4.67995Z" fill="#59C1C9"/>
<path fill-rule="evenodd" clip-rule="evenodd" d="M5.25008 1C5.25008 0.723858 5.47393 0.5 5.75008 0.5C8.64957 0.5 11.0001 2.85051 11.0001 5.75C11.0001 8.6495 8.64957 11 5.75008 11C4.1079 11 2.64156 10.2454 1.67968 9.06601C1.50515 8.85201 1.53715 8.53705 1.75115 8.36252C1.96514 8.188 2.2801 8.21999 2.45463 8.43399C3.23476 9.39056 4.42105 10 5.75008 10C8.09729 10 10.0001 8.09721 10.0001 5.75C10.0001 3.40279 8.09729 1.5 5.75008 1.5C5.47393 1.5 5.25008 1.27614 5.25008 1Z" fill="#59C1C9"/>
</svg>
