<svg width="16" height="13" viewBox="0 0 16 13" fill="none" xmlns="http://www.w3.org/2000/svg">
<path fill-rule="evenodd" clip-rule="evenodd" d="M2.13911 0C1.10484 0 0 0.709407 0 1.88622V9.07473C0 10.2515 1.10485 10.9609 2.13911 10.9609H13.8609C14.8952 10.9609 16 10.2515 16 9.07473V1.88622C16 0.709405 14.8952 0 13.8609 0H2.13911ZM1.34778 1.88622C1.34778 1.73914 1.55431 1.37626 2.13911 1.37626H13.8609C14.4457 1.37626 14.6522 1.73914 14.6522 1.88622V9.07473C14.6522 9.22181 14.4457 9.58469 13.8609 9.58469H2.13911C1.55431 9.58469 1.34778 9.22181 1.34778 9.07473V1.88622ZM4.64632 11.623C4.27414 11.623 3.97243 11.9311 3.97243 12.3112C3.97243 12.6912 4.27414 12.9993 4.64632 12.9993H11.3555C11.7277 12.9993 12.0294 12.6912 12.0294 12.3112C12.0294 11.9311 11.7277 11.623 11.3555 11.623H4.64632Z" fill="#BBD2D5"/>
</svg>
