<svg width="18" height="20" viewBox="0 0 18 20" fill="none" xmlns="http://www.w3.org/2000/svg">
<path d="M8.14825 0.666992C7.21798 0.666992 6.46384 1.42675 6.46384 2.36396V2.71197C6.45928 3.29692 6.13561 3.83189 5.62164 4.10402V4.14545C5.12344 4.43326 4.51109 4.43326 4.01289 4.14545L3.71845 3.96813C3.33131 3.74064 2.87015 3.67797 2.43701 3.79398C2.00388 3.90999 1.6345 4.19512 1.41061 4.58627L0.568405 6.06283C0.346033 6.45332 0.286788 6.91682 0.40371 7.35133C0.520632 7.78583 0.804142 8.15573 1.19183 8.37959L1.51095 8.56685C2.02742 8.8488 2.35027 9.39196 2.35315 9.98376C2.35027 10.5756 2.02742 11.1187 1.51095 11.4007L1.19183 11.5863C0.796945 11.8101 0.508244 12.1849 0.390931 12.6258C0.273619 13.0667 0.337592 13.5367 0.568403 13.9295L1.41061 15.4044C1.63422 15.7959 2.00348 16.0814 2.43664 16.1977C2.86979 16.314 3.33111 16.2516 3.71845 16.0242L4.01289 15.8469C4.51109 15.5591 5.12343 15.5591 5.62163 15.8469V15.9397C6.13561 16.2119 6.45928 16.7468 6.46384 17.3318V17.6367C6.46384 18.5739 7.21798 19.3337 8.14825 19.3337H9.83266C10.7629 19.3337 11.5171 18.5739 11.5171 17.6367V17.2887C11.537 16.7193 11.8585 16.2044 12.3593 15.9397V15.8552C12.8575 15.5674 13.4698 15.5674 13.968 15.8552L14.2625 16.0325C14.6508 16.2592 15.1129 16.3204 15.5461 16.2024C15.9794 16.0845 16.3481 15.7973 16.5703 15.4044L17.4125 13.9295C17.8798 13.1229 17.6122 12.0875 16.8137 11.6128L16.4946 11.4255C16.0047 11.1226 15.7125 10.5793 15.7281 10.0003C15.731 9.40854 16.0538 8.86538 16.5703 8.58343L16.8911 8.39616C17.6668 7.89529 17.8992 6.85937 17.4125 6.07112L16.5703 4.59621C16.3467 4.20479 15.9774 3.91931 15.5443 3.80298C15.1111 3.68665 14.6498 3.74907 14.2625 3.97642L13.968 4.15374C13.4698 4.44155 12.8575 4.44155 12.3593 4.15374V4.10403C11.8453 3.8319 11.5216 3.29693 11.5171 2.71198V2.36397C11.5171 1.42676 10.7629 0.666999 9.83266 0.666999L8.14825 0.666992ZM8.88518 7.45653C9.57304 7.42763 10.2428 7.68277 10.7396 8.16294C11.2364 8.64311 11.5172 9.30673 11.5171 10.0003C11.5171 11.4061 10.3859 12.5458 8.99046 12.5458C7.60958 12.5543 6.47773 11.4443 6.44895 10.0534C6.42018 8.66251 7.50515 7.506 8.88518 7.45653Z" fill="white"/>
</svg>
