<svg fill="none" height="28" viewBox="0 0 27 28" width="27" xmlns="http://www.w3.org/2000/svg"><path clip-rule="evenodd" d="m2.38562 6.28092c0-.53301.43346-.96647.96646-.96647h20.29572c.533 0 .9665.43346.9665.96647v14.01368c0 .533-.4335.9665-.9665.9665h-20.29572c-.533 0-.96646-.4335-.96646-.9665zm21.26298 11.93278h-.0008v2.0809h.001zm-1.4505.6312h-.9664v.9665h.9664zm-11.5975 4.3491v-.9664h5.7987v.9664h1.4497c.9665 0 1.4497.4833 1.4497 1.4497v.4833h-11.59753v-.4833c0-.9664.48323-1.4497 1.44969-1.4497z" fill="#fff" fill-rule="evenodd"/></svg>