<svg width="17" height="14" viewBox="0 0 17 14" fill="none" xmlns="http://www.w3.org/2000/svg">
<path fill-rule="evenodd" clip-rule="evenodd" d="M0 2.2C0 0.984651 0.98465 0 2.2 0H14.2C15.4153 0 16.4 0.98465 16.4 2.2V11.2C16.4 12.4153 15.4153 13.4 14.2 13.4H2.2C0.984651 13.4 0 12.4153 0 11.2V2.2ZM2.2 1.4C1.75785 1.4 1.4 1.75785 1.4 2.2V11.2C1.4 11.6422 1.75785 12 2.2 12H14.2C14.6422 12 15 11.6422 15 11.2V2.2C15 1.75785 14.6421 1.4 14.2 1.4H2.2Z" fill="#BBD2D5"/>
<path d="M5.32904 5.7519L2.45801 9.75956H13.9422L10.2508 4.41602L7.37979 8.43258L5.32904 5.7519Z" fill="#BBD2D5"/>
</svg>
