<svg fill="none" height="28" viewBox="0 0 27 28" width="27" xmlns="http://www.w3.org/2000/svg"><g fill="#fff"><path clip-rule="evenodd" d="m4.90842 2.68674c-.4168-.46078-1.12821-.49644-1.58899-.07964s-.49644 1.12821-.07964 1.58899l19.40621 21.45411c.4168.4608 1.1283.4964 1.589.0796.4608-.4168.4965-1.1282.0797-1.589l-2.5922-2.8657h1.9172c.5326 0 .9657-.4331.9657-.9657v-14.00241c0-.53257-.4331-.96568-.9657-.96568h-16.33009zm17.28278 16.17416h-.9657v.9657h.9657z" fill-rule="evenodd"/><path d="m2.5631 5.76252c-.10624.1551-.16845.34264-.16845.54447v14.00241c0 .5326.43311.9657.96569.9657h13.23456l-3.494-3.8628-9.74056-10.76842z"/><path d="m19.2544 24.2152-.8515-.9414c-.1633-.0449-.3491-.0674-.5573-.0674h-1.4485v-.9656h-5.7941v.9656h-1.44857c-.96568 0-1.44852.4829-1.44852 1.4486v.4828h11.58819v-.4828c0-.1598-.0132-.3064-.0397-.4398z"/></g></svg>