<svg width="19" height="19" viewBox="0 0 19 19" fill="none" xmlns="http://www.w3.org/2000/svg">
<path d="M1.1576 0.324582C0.8185 0.324671 0.513262 0.530211 0.385661 0.84439C0.258059 1.15857 0.333539 1.51874 0.576549 1.75525L4.15403 5.33272H1.99908C1.69855 5.32847 1.41901 5.48636 1.2675 5.74594C1.116 6.00553 1.116 6.32658 1.2675 6.58616C1.41901 6.84574 1.69855 7.00363 1.99908 6.99938H6.03879C6.30471 7.04418 6.57587 6.95754 6.76656 6.76686C6.95724 6.57618 7.04388 6.30502 6.99908 6.0391V1.99938C7.00216 1.77413 6.91393 1.55723 6.75449 1.39809C6.59504 1.23895 6.37797 1.15114 6.15272 1.15466C5.69313 1.16184 5.32612 1.53977 5.33241 1.99938V4.15433L1.75494 0.576859C1.59804 0.415582 1.3826 0.324594 1.1576 0.324581L1.1576 0.324582ZM17.8161 0.324582C17.5996 0.331033 17.3942 0.421515 17.2432 0.576861L13.6657 4.15433V1.99939C13.6688 1.77414 13.5806 1.55723 13.4212 1.39809C13.2617 1.23896 13.0446 1.15114 12.8194 1.15466C12.3598 1.16184 11.9928 1.53978 11.9991 1.99939V6.0391C11.9543 6.30502 12.0409 6.57618 12.2316 6.76686C12.4223 6.95755 12.6934 7.04418 12.9594 6.99938H16.9991C17.2996 7.00363 17.5792 6.84574 17.7307 6.58616C17.8822 6.32658 17.8822 6.00553 17.7307 5.74595C17.5791 5.48636 17.2996 5.32847 16.9991 5.33272H14.8441L18.4216 1.75525C18.6681 1.51567 18.7422 1.14936 18.6082 0.83282C18.4743 0.516281 18.1597 0.314451 17.8161 0.324583V0.324582ZM6.14947 11.9912C6.11842 11.9922 6.08744 11.9949 6.05669 11.9994H1.99907C1.69854 11.9951 1.41901 12.153 1.2675 12.4126C1.116 12.6722 1.116 12.9932 1.2675 13.2528C1.41901 13.5124 1.69855 13.6703 1.99907 13.666H4.15402L0.576548 17.2435C0.35885 17.4525 0.271155 17.7629 0.347288 18.0549C0.423418 18.347 0.651478 18.575 0.943512 18.6512C1.23555 18.7273 1.54592 18.6396 1.75493 18.4219L5.33241 14.8444V16.9994C5.32816 17.2999 5.48606 17.5794 5.74564 17.7309C6.00522 17.8825 6.32627 17.8825 6.58585 17.7309C6.84543 17.5794 7.00333 17.2999 6.99908 16.9994V12.9385C7.03267 12.6957 6.95764 12.4503 6.79395 12.2678C6.63026 12.0853 6.39452 11.9842 6.14947 11.9912L6.14947 11.9912ZM12.8243 11.9912C12.5831 11.9913 12.3538 12.0958 12.1956 12.2778C12.0373 12.4597 11.9657 12.7013 11.9991 12.9401V16.9994C11.9948 17.2999 12.1527 17.5794 12.4123 17.731C12.6719 17.8825 12.9929 17.8825 13.2525 17.731C13.5121 17.5794 13.67 17.2999 13.6657 16.9994V14.8444L17.2432 18.4219C17.4522 18.6396 17.7626 18.7273 18.0546 18.6512C18.3467 18.575 18.5747 18.347 18.6509 18.0549C18.727 17.7629 18.6393 17.4525 18.4216 17.2435L14.8441 13.666H16.9991C17.2996 13.6703 17.5791 13.5124 17.7307 13.2528C17.8822 12.9932 17.8822 12.6722 17.7307 12.4126C17.5791 12.153 17.2996 11.9951 16.9991 11.9994H12.9301C12.895 11.9944 12.8597 11.9917 12.8243 11.9912L12.8243 11.9912Z" fill="white"/>
</svg>
