<svg width="26" height="26" viewBox="0 0 26 26" fill="none" xmlns="http://www.w3.org/2000/svg">
<path d="M19.7948 8.6536L15.2448 4.10354C15.1132 3.97194 14.9354 3.89844 14.7499 3.89844H7.39977C6.62626 3.89844 5.99976 4.52494 5.99976 5.29846V20.6986C5.99976 21.4722 6.62626 22.0987 7.39977 22.0987H18.5999C19.3734 22.0987 19.9999 21.4722 19.9999 20.6986V9.1485C19.9999 8.963 19.9264 8.7852 19.7948 8.6536L19.7948 8.6536ZM11.0601 13.1344H10.1781V17.1986H9.21629V13.1344H8.34128V12.2453H11.0601V13.1344ZM13.6851 17.1986L13.3764 16.2872C13.2812 16.0009 13.193 15.7209 13.1118 15.4052H13.0901C13.0096 15.7209 12.9354 16.0226 12.8626 16.3019L12.5973 17.1986H11.6418L12.5679 14.6632L11.6782 12.246H12.6778L12.9718 13.1645C13.0453 13.4221 13.1188 13.679 13.1923 13.9583H13.207C13.2875 13.6573 13.354 13.4221 13.4205 13.1505L13.6697 12.2467H14.6323L13.7062 14.7087L14.6841 17.1986H13.6851ZM17.9545 13.1344H17.0725V17.1986H16.11V13.1344H15.235V12.2453H17.9538V13.1344H17.9545ZM15.0999 9.49851C14.7135 9.49851 14.3999 9.1849 14.3999 8.7985V5.23125L18.6671 9.49851H15.0999Z" fill="#BBD2D5"/>
</svg>
