<svg fill="none" height="28" viewBox="0 0 27 28" width="27" xmlns="http://www.w3.org/2000/svg"><g fill="#fff"><path d="m1.48182 2.60752c-.18864.02898-.37118.11198-.523423.24899-.414568.37546-.446927 1.01439-.072292 1.42937l17.399095 19.25372c.3747.415 1.0144.4466 1.4291.0725.4145-.3755.4469-1.0144.0723-1.4294l-2.8483-3.1512v-11.48769c0-.91032-.7384-1.64938-1.6491-1.64938h-10.22192l-2.67984-2.96547c-.23713-.26216-.58039-.3715-.90562-.32144z"/><path d="m1.89177 7.46081-.00206.083v12.05949c0 .9103.73841 1.6493 1.64914 1.6493h10.81585z"/><path d="m22.2607 19.428-3.9824-2.8732v-5.6529l3.9824-2.87461c1.0907-.7878 2.6143-.0079 2.6143 1.33716v8.72775c0 1.3437-1.5236 2.1236-2.6143 1.3358z"/></g></svg>