<svg width="14" height="19" viewBox="0 0 14 19" fill="none" xmlns="http://www.w3.org/2000/svg">
<path d="M13.7949 4.7551L9.2449 0.205101C9.1133 0.0735001 8.9355 0 8.75 0H1.4C0.626501 0 0 0.6265 0 1.4V16.8C0 17.5735 0.6265 18.2 1.4 18.2H12.6C13.3735 18.2 14 17.5735 14 16.8V5.25C14 5.0645 13.9265 4.8867 13.7949 4.7551L13.7949 4.7551ZM4.3736 13.5198L4.0628 12.6049C3.9655 12.3165 3.8815 12.0428 3.7954 11.7257H3.7793C3.6988 12.0414 3.619 12.3382 3.5448 12.6238L3.2816 13.5198H2.3254L3.2494 10.9823L2.3604 8.5568H3.3656L3.6554 9.4738C3.7338 9.7335 3.8059 9.9897 3.8822 10.2732H3.8969C3.9774 9.9729 4.0404 9.7321 4.1055 9.4633L4.3568 8.5568H5.3228L4.3925 11.0222L5.3739 13.5198H4.3736ZM8.4126 13.5198H6.1761V8.5568H7.1428V12.7015H8.4119V13.5198L8.4126 13.5198ZM9.849 13.5639C9.4486 13.5639 9.0636 13.4638 8.8977 13.3651L9.037 12.5307C9.2365 12.6455 9.5788 12.7253 9.8532 12.7253C10.3082 12.7253 10.5357 12.4887 10.5357 12.1625C10.5357 11.8083 10.311 11.6263 9.8903 11.3575C9.212 10.941 8.9551 10.4209 8.9551 9.9708C8.9551 9.1735 9.4836 8.5134 10.5231 8.5134C10.8528 8.5134 11.1594 8.6051 11.3029 8.6912L11.1489 9.5214C11.0075 9.4325 10.7961 9.352 10.5182 9.352C10.1045 9.352 9.9064 9.6019 9.9064 9.8644C9.9064 10.1619 10.0562 10.3187 10.5889 10.64C11.2476 11.0355 11.4863 11.5381 11.4863 12.0589C11.4863 12.9703 10.8164 13.5639 9.849 13.5639V13.5639ZM9.1 5.6C8.7136 5.6 8.4 5.2864 8.4 4.9V1.3328L12.6672 5.6H9.1Z" fill="#BBD2D5"/>
</svg>
